<svg width="30" height="33" viewBox="0 0 30 33" fill="none" xmlns="http://www.w3.org/2000/svg">
<path d="M25.9388 0.248047H4.06123C2.21633 0.248047 0.714287 1.74206 0.714287 3.59335V25.5489C0.714287 27.4002 2.21633 28.8942 4.06123 28.8942H22.5755L21.7102 25.8899L23.8 27.8224L25.7755 29.6412L29.2857 32.7267V3.59335C29.2857 1.74206 27.7837 0.248047 25.9388 0.248047ZM19.6367 21.4566C19.6367 21.4566 19.049 20.7583 18.5592 20.1412C20.698 19.5404 21.5143 18.2087 21.5143 18.2087C20.8449 18.6472 20.2082 18.9557 19.6367 19.1669C18.8204 19.5079 18.0367 19.7352 17.2694 19.8651C15.702 20.1575 14.2653 20.0763 13.0408 19.8489C12.1102 19.6703 11.3102 19.4104 10.6408 19.1506C10.2653 19.0045 9.85714 18.8258 9.44898 18.5985C9.4 18.566 9.35102 18.5498 9.30204 18.5173C9.26939 18.501 9.25306 18.4848 9.23674 18.4686C8.94286 18.3062 8.77959 18.1925 8.77959 18.1925C8.77959 18.1925 9.56327 19.4916 11.6367 20.1087C11.1469 20.7258 10.5429 21.4566 10.5429 21.4566C6.93469 21.3429 5.56327 18.9882 5.56327 18.9882C5.56327 13.7592 7.91429 9.5207 7.91429 9.5207C10.2653 7.76685 12.502 7.81557 12.502 7.81557L12.6653 8.01044C9.72653 8.85489 8.37143 10.1378 8.37143 10.1378C8.37143 10.1378 8.73061 9.94292 9.3347 9.66685C11.0816 8.9036 12.4694 8.69249 13.0408 8.64377C13.1388 8.62753 13.2204 8.6113 13.3184 8.6113C14.3143 8.48138 15.4408 8.4489 16.6163 8.57882C18.1673 8.75745 19.8327 9.21215 21.5306 10.1378C21.5306 10.1378 20.2408 8.91984 17.4653 8.0754L17.6939 7.81557C17.6939 7.81557 19.9306 7.76685 22.2816 9.5207C22.2816 9.5207 24.6327 13.7592 24.6327 18.9882C24.6327 18.9882 23.2449 21.3429 19.6367 21.4566Z" fill="black"/>
</svg>
