<svg width="64" height="64" viewBox="0 0 64 64" fill="none" xmlns="http://www.w3.org/2000/svg">
<g clip-path="url(#clip0)">
<path d="M31.9852 40.8277L37.6353 53.4603L48.5226 52.5233L52.7836 42.4597L42.4853 33.1288L32.0065 29.7754L31.9852 40.8277ZM37.1192 54.3358L31.1565 41.0041L31.1803 28.6406L42.9087 32.3945L53.7764 42.2414L49.0913 53.3061L37.1192 54.3358Z" fill="black"/>
<path fill-rule="evenodd" clip-rule="evenodd" d="M31.8449 40.2188L49.0495 52.5806L48.5654 53.2542L31.3608 40.8924L31.8449 40.2188Z" fill="black"/>
<path fill-rule="evenodd" clip-rule="evenodd" d="M42.7749 32.6094L49.2036 52.794L48.4135 53.0459L41.9856 32.8605L42.7749 32.6094Z" fill="black"/>
<path d="M5.17662 30.5419L19.7128 32.3372L30.9095 28.8804L24.2519 19.3009L11.4363 11.6701L1.02974 10.3983L2.69128 18.9842L5.17662 30.5419ZM19.7883 33.1823L19.6997 33.1708L4.49067 31.2919L1.87897 19.1499L0 9.4375L11.7095 10.8685L24.8304 18.6806L32.2363 29.3374L19.7883 33.1823Z" fill="black"/>
<path fill-rule="evenodd" clip-rule="evenodd" d="M2.53609 18.7344L20.3584 32.286L19.8563 32.9465L2.03394 19.3941L2.53609 18.7344Z" fill="black"/>
<path d="M24.6647 19.7115L2.28518 19.4719L2.26221 18.8836L2.28518 18.5053L10.894 11.0469L11.4372 11.6737L3.37893 18.6538L24.6737 18.8828L24.6647 19.7115Z" fill="black"/>
<path d="M25.9684 54.3345L13.9954 53.3048L9.3103 42.2402L20.178 32.3932L31.3673 28.8125L31.62 29.601L20.6022 33.1276L10.3031 42.4584L14.5649 52.522L25.4523 53.4591L31.1376 40.7452L31.8949 41.0841L25.9684 54.3345Z" fill="black"/>
<path fill-rule="evenodd" clip-rule="evenodd" d="M31.2428 40.2188L31.7187 40.8809L14.5224 53.2542L14.0457 52.5921L31.2428 40.2188Z" fill="black"/>
<path fill-rule="evenodd" clip-rule="evenodd" d="M20.3118 32.6094L21.1126 32.8646L14.6724 53.0459L13.8716 52.7899L20.3118 32.6094Z" fill="black"/>
<path d="M32.2862 28.8796L43.483 32.3372L58.0192 30.5411L60.507 18.9751L62.1652 10.3983L51.7603 11.6693L38.9431 19.3009L32.2862 28.8796ZM43.4083 33.1815L30.9595 29.3374L38.3654 18.6798L51.4862 10.8677L63.1958 9.4375L61.3185 19.1409L58.7051 31.291L43.4083 33.1815Z" fill="black"/>
<path fill-rule="evenodd" clip-rule="evenodd" d="M60.6606 18.7344L61.166 19.3998L43.3404 32.9465L42.835 32.281L60.6606 18.7344Z" fill="black"/>
<path d="M38.5312 19.7115L38.5222 18.8828L59.817 18.6538L51.7587 11.6737L52.3019 11.0469L61.0034 18.5849L60.8221 19.4719L38.5312 19.7115Z" fill="black"/>
</g>
<defs>
<clipPath id="clip0">
<rect width="64" height="64" fill="white"/>
</clipPath>
</defs>
</svg>
