<svg width="34" height="34" viewBox="0 0 34 34" fill="none" xmlns="http://www.w3.org/2000/svg">
<path fill-rule="evenodd" clip-rule="evenodd" d="M16.7816 0.514648C7.51503 0.514648 0 8.02865 0 17.2993C0 24.7134 4.80842 31.0044 11.4776 33.2237C12.3173 33.3772 12.6233 32.859 12.6233 32.4149C12.6233 32.0162 12.6088 30.9611 12.6006 29.5599C7.9323 30.5748 6.94733 27.3108 6.94733 27.3108C6.18388 25.3717 5.08352 24.8556 5.08352 24.8556C3.5597 23.8139 5.19891 23.8356 5.19891 23.8356C6.88346 23.954 7.76952 25.5644 7.76952 25.5644C9.26655 28.1299 11.6981 27.3891 12.6542 26.9594C12.8067 25.8745 13.2404 25.1348 13.7195 24.7154C9.99291 24.292 6.07467 22.8516 6.07467 16.4205C6.07467 14.5886 6.72891 13.0905 7.80249 11.917C7.62939 11.4925 7.05345 9.78635 7.96733 7.47538C7.96733 7.47538 9.37576 7.0241 12.5821 9.19598C13.9204 8.82404 15.3567 8.63756 16.7836 8.63138C18.2096 8.63756 19.6448 8.82404 20.9852 9.19598C24.1895 7.0241 25.5958 7.47538 25.5958 7.47538C26.5118 9.78635 25.9358 11.4925 25.7638 11.917C26.8394 13.0905 27.4885 14.5886 27.4885 16.4205C27.4885 22.8681 23.5641 24.2868 19.8261 24.702C20.4278 25.2203 20.9646 26.2444 20.9646 27.8105C20.9646 30.0545 20.944 31.8647 20.944 32.4149C20.944 32.8631 21.2469 33.3854 22.0979 33.2216C28.7619 30.9982 33.5662 24.7113 33.5662 17.2993C33.5662 8.02865 26.0512 0.514648 16.7816 0.514648Z" fill="#181717"/>
</svg>
