<?xml version="1.0" standalone="no"?>
<!DOCTYPE svg PUBLIC "-//W3C//DTD SVG 20010904//EN"
 "http://www.w3.org/TR/2001/REC-SVG-20010904/DTD/svg10.dtd">
<svg version="1.0" xmlns="http://www.w3.org/2000/svg"
 width="1168.000000pt" height="1168.000000pt" viewBox="0 0 1168.000000 1168.000000"
 preserveAspectRatio="xMidYMid meet">
<metadata>
Created by potrace 1.11, written by Peter Selinger 2001-2013
</metadata>
<g transform="translate(0.000000,1168.000000) scale(0.100000,-0.100000)"
fill="#000000" stroke="none">
<path d="M3468 9595 c-2 -2 -37 -6 -79 -9 -42 -3 -101 -9 -130 -12 -30 -4 -65
-8 -79 -10 -14 -1 -25 -3 -25 -4 0 -1 -16 -3 -35 -5 -19 -2 -51 -6 -70 -10
-19 -3 -46 -8 -60 -10 -31 -6 -59 -11 -127 -26 -29 -5 -54 -10 -55 -9 -2 1
-16 -4 -33 -10 -16 -7 -40 -14 -53 -16 -17 -3 -143 -42 -257 -78 -26 -8 -52
-18 -67 -27 -10 -5 -23 -9 -28 -9 -6 0 -32 -10 -58 -22 -26 -11 -53 -21 -59
-21 -7 0 -13 -4 -13 -9 0 -4 -6 -8 -13 -8 -7 0 -35 -11 -63 -24 -27 -13 -67
-31 -89 -42 -22 -10 -42 -20 -45 -23 -3 -4 -36 -22 -75 -41 -38 -19 -72 -38
-75 -41 -3 -3 -21 -14 -40 -24 -61 -31 -320 -207 -320 -218 0 -6 -3 -8 -6 -4
-4 3 -12 1 -20 -6 -7 -7 -19 -16 -26 -22 -11 -8 -78 -64 -227 -190 -34 -28
-279 -275 -320 -321 -18 -22 -68 -82 -110 -134 -42 -52 -81 -101 -88 -108 -21
-22 -219 -325 -254 -387 -89 -162 -230 -468 -244 -530 -1 -5 -8 -23 -14 -40
-7 -16 -14 -34 -15 -40 -2 -5 -8 -28 -14 -50 -6 -22 -12 -43 -12 -47 -1 -4 -7
-23 -16 -43 -8 -19 -12 -35 -9 -35 3 0 1 -8 -4 -18 -6 -11 -12 -30 -15 -43 -2
-13 -11 -51 -19 -84 -17 -63 -22 -87 -38 -175 -5 -30 -12 -71 -16 -90 -3 -19
-7 -47 -7 -62 -1 -16 -3 -28 -6 -28 -3 0 -5 -10 -6 -22 0 -13 -4 -50 -7 -83
-17 -144 -22 -246 -21 -490 0 -235 7 -415 19 -470 2 -11 7 -42 10 -70 8 -75
14 -114 26 -175 6 -30 13 -68 15 -85 3 -16 12 -59 20 -95 21 -88 21 -88 39
-150 8 -30 17 -64 19 -75 3 -19 40 -134 53 -165 8 -19 8 -20 18 -55 4 -16 11
-34 15 -40 4 -5 21 -48 39 -95 39 -100 161 -348 218 -440 21 -36 42 -73 46
-82 3 -10 11 -18 17 -18 5 0 10 -5 10 -10 0 -9 79 -132 112 -175 70 -92 219
-275 264 -325 133 -145 343 -344 446 -422 20 -15 42 -33 50 -41 47 -46 322
-231 433 -292 39 -22 72 -43 73 -47 2 -4 10 -8 17 -8 8 0 36 -13 62 -28 26
-15 77 -41 113 -56 36 -16 83 -37 105 -46 151 -66 435 -159 565 -185 8 -2 33
-8 55 -14 40 -10 91 -20 130 -25 11 -2 34 -6 50 -9 17 -4 46 -9 65 -11 19 -2
51 -7 70 -10 215 -36 828 -43 1045 -11 17 2 50 7 75 10 25 3 59 8 75 11 17 3
48 7 70 9 22 2 40 4 40 5 0 2 26 8 70 15 22 3 65 13 96 20 30 8 66 17 80 19
13 2 24 5 24 6 0 1 7 3 16 5 9 1 43 11 75 20 33 10 66 19 74 20 8 2 16 4 18 5
1 2 5 3 10 4 4 1 39 12 77 25 61 20 95 33 200 76 11 5 22 9 25 10 35 12 292
136 300 145 3 3 21 13 40 24 61 32 102 57 137 81 33 22 36 22 64 7 16 -10 29
-20 29 -24 0 -5 9 -8 19 -8 11 0 21 -4 23 -9 3 -9 145 -91 157 -91 4 0 13 -6
20 -12 6 -7 15 -13 19 -14 4 0 48 -20 97 -43 155 -74 422 -173 528 -196 9 -2
20 -6 25 -8 4 -3 61 -17 127 -32 141 -32 130 -29 225 -45 41 -6 86 -13 100
-16 14 -2 50 -6 80 -9 30 -4 66 -8 80 -11 103 -18 668 -25 825 -10 161 15 257
26 275 31 8 3 32 7 54 11 21 3 48 8 60 10 11 2 37 7 56 10 46 8 65 12 65 14 0
1 14 4 30 6 17 3 62 14 100 25 39 11 79 22 89 24 27 6 106 32 221 72 109 38
138 50 235 95 35 17 69 31 75 32 5 1 15 5 22 9 14 9 198 106 230 121 13 6 23
14 23 19 0 4 5 7 10 7 6 0 38 18 71 40 33 22 62 40 64 40 5 0 97 62 105 70 3
3 39 30 80 60 151 110 309 249 465 410 116 119 136 140 205 225 36 44 67 82
70 85 7 7 121 160 140 190 8 12 23 33 33 45 9 13 17 28 17 33 0 6 4 12 8 14
23 9 272 470 274 505 0 4 8 24 18 43 21 41 116 303 129 358 6 20 26 98 45 172
19 74 33 136 31 138 -2 2 0 15 5 28 5 13 12 45 16 71 3 27 8 57 10 68 11 53
15 79 20 132 3 32 7 72 9 88 14 130 19 253 18 455 -1 272 -9 398 -38 600 -5
30 -9 62 -10 70 -1 8 -7 40 -13 70 -6 30 -13 69 -16 85 -6 40 -26 118 -70 280
-1 6 -11 37 -21 70 -10 33 -19 62 -20 65 -3 15 -20 63 -42 120 -41 109 -42
112 -103 243 -22 49 -40 93 -40 98 0 5 -4 9 -10 9 -5 0 -10 9 -10 19 0 11 -3
21 -7 23 -5 2 -17 21 -28 43 -45 90 -172 296 -187 303 -5 2 -8 8 -8 14 0 8
-90 134 -137 193 -189 236 -403 455 -598 613 -38 31 -79 65 -89 74 -11 10 -38
30 -60 45 -23 15 -43 31 -46 34 -25 30 -416 269 -439 269 -6 0 -11 5 -11 10 0
6 -9 10 -20 10 -11 0 -20 5 -20 10 0 6 -5 10 -11 10 -5 0 -38 13 -72 29 -140
67 -397 166 -397 154 0 -3 -6 -1 -12 5 -11 8 -72 28 -148 47 -8 2 -16 4 -17 5
-4 4 -41 12 -103 24 -8 2 -22 6 -30 9 -13 5 -94 21 -215 42 -16 3 -64 10 -105
15 -41 6 -89 13 -106 15 -184 26 -790 27 -929 1 -24 -4 -91 -13 -160 -22 -27
-3 -68 -10 -90 -14 -22 -5 -56 -11 -75 -15 -19 -3 -48 -8 -65 -12 -16 -4 -34
-6 -38 -5 -4 1 -16 -2 -27 -8 -10 -5 -31 -12 -47 -14 -15 -2 -35 -6 -43 -9
-20 -6 -99 -28 -119 -32 -9 -2 -38 -11 -65 -20 -26 -9 -56 -18 -65 -20 -52
-11 -173 -63 -179 -77 -2 -5 -9 -8 -17 -8 -7 0 -18 -7 -25 -15 -7 -8 -16 -13
-20 -10 -4 3 -10 -2 -13 -9 -4 -10 32 -39 116 -93 67 -43 149 -96 182 -118 33
-23 79 -52 103 -65 23 -13 42 -27 42 -32 0 -4 4 -8 9 -8 10 0 200 -120 288
-181 23 -16 46 -29 51 -29 6 0 12 -3 14 -8 2 -4 33 -26 69 -50 64 -41 67 -42
117 -32 28 5 73 12 99 15 26 4 59 8 72 10 140 23 522 23 701 1 19 -3 58 -7 85
-10 28 -3 50 -6 50 -6 0 -2 26 -7 75 -15 49 -7 271 -63 310 -78 8 -3 51 -18
95 -33 160 -54 362 -152 492 -236 23 -16 46 -28 51 -28 5 0 17 -9 27 -20 10
-11 24 -20 31 -20 7 0 17 -6 21 -13 4 -7 22 -21 38 -31 25 -16 100 -75 204
-161 46 -38 226 -220 282 -285 151 -176 282 -376 388 -593 71 -147 147 -351
176 -472 1 -5 5 -17 8 -25 3 -8 10 -37 16 -65 46 -206 66 -345 75 -517 2 -43
6 -81 8 -85 6 -13 1 -310 -7 -413 -4 -52 -8 -117 -10 -145 -2 -27 -4 -50 -5
-50 -1 0 -3 -9 -5 -20 -6 -32 -16 -97 -21 -130 -3 -16 -12 -61 -20 -100 -9
-38 -18 -81 -21 -95 -4 -25 -13 -53 -61 -205 -50 -158 -182 -450 -243 -537
-11 -14 -19 -29 -19 -32 0 -9 -133 -201 -142 -204 -4 -2 -8 -10 -8 -18 0 -8
-4 -14 -8 -14 -5 0 -20 -15 -33 -34 -77 -107 -254 -289 -413 -424 -15 -13 -64
-50 -109 -83 -45 -33 -89 -66 -97 -72 -63 -50 -308 -184 -433 -238 -101 -43
-257 -99 -257 -92 0 3 -6 1 -13 -5 -7 -6 -26 -14 -42 -17 -39 -8 -59 -13 -62
-15 -4 -3 -11 -5 -58 -15 -56 -13 -55 -12 -57 -15 -2 -1 -12 -3 -23 -4 -11 -1
-38 -6 -60 -11 -22 -5 -47 -9 -55 -10 -19 -2 -119 -16 -145 -21 -85 -16 -455
-22 -595 -11 -41 4 -100 9 -131 12 -31 2 -71 7 -88 10 -45 7 -86 14 -123 20
-31 5 -57 10 -103 20 -18 3 -179 46 -230 60 -11 4 -24 7 -30 8 -5 2 -23 8 -40
14 -16 6 -57 21 -90 34 -128 48 -247 108 -239 121 8 13 134 169 144 178 8 7
99 140 132 192 91 144 225 407 220 431 -1 4 3 7 10 7 6 0 9 3 5 6 -3 3 7 36
23 72 54 127 137 417 166 582 22 121 27 149 30 180 2 19 6 45 8 57 9 45 16
188 9 177 -5 -6 -15 -14 -23 -18 -23 -10 -56 -30 -71 -42 -17 -13 -87 -41
-126 -50 -15 -4 -75 -8 -133 -10 -107 -3 -166 9 -260 53 -94 44 -208 154 -259
250 -56 105 -62 129 -66 278 -3 108 8 170 49 258 28 61 108 165 151 196 l30
21 -30 0 c-52 1 -1018 1 -1061 1 l-41 -1 -13 -86 c-23 -159 -29 -246 -29 -429
0 -205 10 -334 28 -345 5 -3 223 -5 485 -4 l477 1 -6 -46 c-10 -77 -14 -105
-19 -126 -2 -11 -7 -40 -11 -65 -4 -25 -9 -52 -10 -60 -3 -13 -49 -203 -59
-240 -10 -36 -48 -147 -57 -162 -5 -10 -9 -23 -9 -28 0 -45 -228 -474 -274
-515 -6 -5 -26 -32 -44 -58 -19 -26 -47 -62 -63 -80 -27 -28 -31 -30 -40 -15
-5 9 -15 23 -22 30 -30 31 -129 170 -177 248 -28 47 -55 92 -60 100 -10 16
-72 141 -75 150 -1 3 -9 23 -19 45 -47 104 -133 370 -150 465 -2 14 -9 45 -14
70 -6 25 -13 67 -17 94 -3 27 -8 52 -10 55 -2 4 -6 35 -9 71 -3 36 -8 79 -11
95 -3 17 -7 43 -10 58 -22 141 -22 512 0 627 2 11 7 48 10 84 6 60 5 66 -11
66 -24 1 -1605 1 -1621 0 -10 0 -13 -94 -13 -430 l1 -430 22 -1 c12 0 176 -2
364 -2 188 -1 344 -4 346 -7 3 -3 8 -39 12 -79 4 -41 8 -86 10 -100 1 -14 7
-57 11 -96 4 -38 8 -72 9 -75 12 -53 15 -71 20 -105 3 -22 13 -69 21 -105 9
-36 18 -76 20 -90 7 -33 53 -201 61 -220 3 -8 7 -17 8 -20 14 -55 123 -332
136 -345 5 -5 9 -17 9 -26 0 -10 3 -19 8 -21 4 -1 15 -21 25 -43 20 -43 128
-237 137 -245 4 -4 80 -114 135 -197 6 -8 22 -29 37 -46 81 -95 118 -141 118
-146 0 -9 -230 -107 -330 -141 -71 -25 -203 -62 -270 -76 -14 -3 -32 -7 -40
-9 -8 -2 -17 -4 -20 -5 -3 -1 -9 -3 -15 -4 -5 -1 -35 -6 -65 -11 -30 -5 -57
-9 -60 -10 -3 -1 -27 -5 -55 -9 -263 -38 -674 -38 -910 0 -77 12 -91 15 -165
30 -280 56 -562 165 -810 312 -52 31 -96 60 -98 64 -2 4 -10 8 -17 8 -7 0 -15
3 -17 8 -1 4 -28 24 -58 44 -30 21 -67 48 -82 60 -14 13 -39 32 -54 43 -78 57
-307 280 -374 364 -19 24 -40 48 -45 55 -33 36 -195 260 -195 270 0 2 -19 35
-42 72 -49 82 -168 325 -168 346 0 8 -4 18 -9 23 -22 23 -125 365 -145 480
-23 135 -31 184 -42 280 -23 188 -23 580 1 780 6 53 14 114 19 145 3 14 7 41
10 61 3 20 8 42 10 50 3 8 7 30 10 49 3 19 12 56 20 83 8 26 12 47 10 47 -3 0
0 8 5 18 6 11 12 30 14 43 21 112 161 449 246 589 11 19 24 42 28 50 7 17 115
180 145 220 138 184 358 415 509 533 132 104 335 233 486 310 81 41 153 75
158 77 19 5 41 13 102 36 34 13 68 24 75 24 8 0 19 5 26 12 7 7 12 9 12 5 0
-4 17 0 38 8 48 19 158 47 237 60 17 3 37 8 45 10 15 4 40 8 135 20 28 4 61 9
75 11 139 22 591 22 700 0 14 -3 45 -8 70 -10 25 -3 55 -7 66 -10 12 -2 39 -7
60 -10 22 -4 46 -8 54 -11 8 -2 26 -6 40 -9 14 -3 40 -10 59 -15 19 -6 37 -9
39 -6 3 3 11 0 19 -6 7 -6 13 -9 13 -5 0 3 24 -3 53 -14 28 -10 68 -22 87 -26
19 -3 40 -7 45 -8 21 -5 131 -37 145 -43 8 -3 17 -7 20 -8 3 -1 12 -5 20 -8 8
-4 34 -13 57 -21 118 -41 533 -246 541 -268 2 -4 8 -8 13 -8 14 0 235 -149
351 -237 54 -40 102 -73 106 -73 5 0 20 12 34 28 70 75 304 289 360 327 35 25
68 48 73 52 6 4 33 24 60 43 28 19 56 40 63 47 7 7 17 13 21 13 4 0 17 8 29
18 12 9 40 30 62 47 36 26 39 31 25 40 -10 5 -67 46 -127 90 -61 44 -117 85
-126 90 -10 6 -21 16 -25 23 -4 6 -15 12 -22 12 -8 0 -15 5 -15 10 0 6 -5 10
-10 10 -6 0 -16 5 -23 11 -18 15 -216 137 -357 219 -191 110 -553 283 -640
305 -15 4 -69 24 -125 45 -16 6 -31 11 -33 11 -1 -1 -16 6 -32 14 -16 8 -32
15 -35 15 -3 1 -10 3 -17 5 -98 35 -317 100 -378 111 -14 3 -33 7 -42 10 -10
3 -28 7 -40 10 -13 2 -34 6 -48 9 -54 12 -177 34 -217 40 -89 12 -116 16 -263
32 -50 5 -617 13 -622 8z"/>
<path d="M2929 7263 c-1 -5 -2 -198 -3 -430 -1 -274 3 -424 9 -426 6 -2 199
-3 430 -3 l420 1 2 433 2 432 -429 0 c-237 0 -430 -3 -431 -7z"/>
<path d="M7910 7248 c-80 -25 -130 -58 -201 -131 -121 -124 -164 -305 -111
-474 52 -167 208 -303 377 -330 30 -5 136 -3 166 2 179 33 341 190 382 372 14
58 14 182 1 212 -4 9 -8 22 -10 30 -1 8 -17 42 -34 75 -106 209 -348 312 -570
244z"/>
<path d="M1847 6161 c-17 -6 -18 -29 -18 -371 0 -201 0 -394 1 -430 l0 -65
430 0 430 0 0 40 c2 288 -1 819 -4 823 -3 2 -80 3 -173 3 -196 -2 -195 -2
-293 0 -41 1 -79 0 -85 -1 -5 -1 -14 -1 -20 0 -22 4 -226 0 -235 -5 -4 -3 -10
-1 -12 4 -1 4 -11 5 -21 2z"/>
<path d="M9200 6070 c-251 -30 -440 -249 -429 -498 7 -156 84 -292 218 -385
97 -67 234 -92 359 -67 165 35 316 177 367 346 20 66 16 198 -7 269 -58 174
-220 310 -395 331 -26 3 -49 6 -52 8 -3 1 -31 -1 -61 -4z"/>
<path d="M6713 5980 c-171 -56 -284 -212 -284 -388 0 -56 2 -69 17 -127 28
-110 153 -231 275 -268 51 -16 190 -15 230 1 15 6 30 8 33 5 3 -4 6 -2 6 4 0
5 17 18 38 27 52 24 144 121 175 186 27 54 41 117 40 175 -2 166 -117 324
-277 382 -62 22 -190 24 -253 3z"/>
<path d="M2928 4917 c-3 -10 -2 -811 1 -843 1 -7 133 -10 431 -10 l430 0 0
432 0 432 -429 0 c-320 0 -430 -2 -433 -11z"/>
<path d="M7936 4869 c-26 -9 -50 -18 -54 -19 -49 -11 -185 -123 -212 -176 -8
-16 -21 -35 -28 -42 -7 -8 -10 -17 -7 -22 3 -5 2 -10 -2 -12 -5 -1 -15 -26
-24 -55 -22 -67 -19 -220 5 -283 9 -25 18 -49 19 -55 4 -20 59 -96 95 -133 38
-39 124 -102 145 -106 7 -2 24 -8 38 -14 104 -42 261 -30 378 30 95 49 223
197 235 271 1 7 5 18 10 26 13 20 17 179 5 231 -33 154 -173 307 -324 355 -82
26 -217 28 -279 4z"/>
</g>
</svg>
