<?xml version="1.0" encoding="UTF-8" standalone="no"?>
<!DOCTYPE svg PUBLIC "-//W3C//DTD SVG 1.1//EN" "http://www.w3.org/Graphics/SVG/1.1/DTD/svg11.dtd">
<svg width="100%" height="100%" viewBox="0 0 172 127" version="1.1" xmlns="http://www.w3.org/2000/svg" xmlns:xlink="http://www.w3.org/1999/xlink" xml:space="preserve" xmlns:serif="http://www.serif.com/" style="fill-rule:evenodd;clip-rule:evenodd;stroke-linejoin:round;stroke-miterlimit:2;">
    <g transform="matrix(1,0,0,1,-194.037,-80.5804)">
        <g id="Layer-1" serif:id="Layer 1">
            <g transform="matrix(1,0,0,1,269.526,92.6574)">
                <path d="M0,52.703C-3.918,54.711 -8.425,55.738 -13.547,55.738C-21.562,55.738 -28.343,52.964 -33.892,47.415C-39.373,41.799 -42.112,34.777 -42.112,26.351C-42.112,17.927 -39.373,10.906 -33.892,5.288C-28.343,-0.261 -21.562,-3.035 -13.547,-3.035C-10.34,-3.035 -7.291,-2.559 -4.396,-1.62C-4.396,-1.62 -2.518,-1.486 2.292,0.931C5.737,2.662 9.029,5.352 9.029,5.352L12.439,2.114L16.751,-0.902C16.555,-0.798 15.665,-1.566 13.954,-2.812C12.78,-3.668 10.057,-5.336 7.991,-6.455C4.412,-8.394 1.817,-9.178 1.762,-9.2C-3.033,-11.117 -8.137,-12.077 -13.547,-12.077C-24.233,-12.077 -33.275,-8.378 -40.673,-0.98C-48.071,6.418 -51.77,15.529 -51.77,26.351C-51.77,37.176 -48.071,46.286 -40.673,53.683C-33.275,61.081 -24.233,64.78 -13.547,64.78C-5.48,64.78 1.456,62.874 7.271,59.083C5.039,57.627 2.966,55.903 1.066,53.889C0.687,53.51 0.355,53.098 0,52.703" style="fill:rgb(226,63,52);fill-rule:nonzero;"/>
            </g>
            <g transform="matrix(-1,0,0,1,504.288,-70.368)">
                <rect x="247.726" y="174.766" width="8.836" height="8.836" style="fill:rgb(226,63,52);"/>
            </g>
            <g transform="matrix(-1,0,0,1,504.288,-22.502)">
                <rect x="247.726" y="150.833" width="8.836" height="8.836" style="fill:rgb(226,63,52);"/>
            </g>
            <g transform="matrix(-1,0,0,1,481.808,-47.704)">
                <rect x="236.486" y="163.434" width="8.836" height="8.836" style="fill:rgb(226,63,52);"/>
            </g>
            <g transform="matrix(1,0,0,1,300.269,104.398)">
                <path d="M0,9.836C1.342,9.819 2.488,9.336 3.439,8.383C4.425,7.398 4.917,6.243 4.918,4.918C4.917,3.593 4.425,2.438 3.439,1.452C2.488,0.501 1.342,0.017 0,0.001C-1.343,-0.017 -2.506,0.467 -3.491,1.452C-4.443,2.404 -4.918,3.559 -4.918,4.918C-4.918,6.277 -4.443,7.432 -3.491,8.383C-2.506,9.369 -1.343,9.853 0,9.836" style="fill:rgb(241,181,27);fill-rule:nonzero;"/>
            </g>
            <g transform="matrix(1,0,0,1,315.956,125.028)">
                <path d="M0,-6.931C-0.952,-7.883 -2.099,-8.366 -3.44,-8.383C-4.783,-8.4 -5.946,-7.916 -6.932,-6.931C-7.883,-5.979 -8.358,-4.825 -8.357,-3.465C-8.358,-2.106 -7.883,-0.952 -6.932,0C-5.946,0.985 -4.783,1.469 -3.44,1.452C-2.099,1.436 -0.952,0.952 0,0C0.984,-0.985 1.477,-2.14 1.478,-3.465C1.477,-4.791 0.984,-5.946 0,-6.931" style="fill:rgb(50,161,78);fill-rule:nonzero;"/>
            </g>
            <g transform="matrix(1,0,0,1,300.426,138.57)">
                <path d="M0,-9.835C-1.343,-9.852 -2.506,-9.368 -3.491,-8.383C-4.442,-7.431 -4.918,-6.276 -4.917,-4.918C-4.918,-3.558 -4.442,-2.404 -3.491,-1.452C-2.506,-0.467 -1.343,0.017 0,-0C1.342,-0.017 2.488,-0.5 3.44,-1.452C4.425,-2.437 4.917,-3.592 4.918,-4.918C4.917,-6.243 4.425,-7.398 3.44,-8.383C2.488,-9.335 1.342,-9.818 0,-9.835" style="fill:rgb(81,123,188);fill-rule:nonzero;"/>
            </g>
            <g transform="matrix(1,0,0,1,290.697,124.519)">
                <path d="M0,-5.901C-0.809,-6.71 -1.783,-7.121 -2.923,-7.135C-3.146,-7.138 -3.358,-7.111 -3.57,-7.081C-4.44,-6.959 -5.216,-6.574 -5.89,-5.901C-6.698,-5.092 -7.103,-4.111 -7.102,-2.957C-7.103,-1.801 -6.698,-0.82 -5.89,-0.012C-5.053,0.825 -4.064,1.237 -2.923,1.222L-2.922,1.222C-1.782,1.207 -0.809,0.797 0,-0.012C0.837,-0.849 1.255,-1.83 1.256,-2.957C1.255,-4.083 0.837,-5.064 0,-5.901" style="fill:rgb(226,63,52);fill-rule:nonzero;"/>
            </g>
            <g transform="matrix(1,0,0,1,288.229,134.497)">
                <path d="M0,-7.192L-0.002,-7.192C-1.655,-7.171 -3.088,-7.767 -4.301,-8.98C-5.473,-10.152 -6.058,-11.573 -6.057,-13.247C-6.058,-14.921 -5.473,-16.342 -4.301,-17.514C-4.099,-17.716 -3.886,-17.89 -3.671,-18.056L-15.216,-18.056C-15.772,-14.933 -15.842,-11.992 -15.461,-9.22L-5.536,-9.22C-6.147,-3.396 -8.128,1.399 -11.433,5.202C-10.656,6.096 -9.829,6.952 -8.904,7.733C-7.439,8.971 -5.85,9.998 -4.162,10.864C0.442,5.745 3.071,-0.727 3.724,-8.554C2.657,-7.682 1.423,-7.211 0,-7.192" style="fill:rgb(226,63,52);fill-rule:nonzero;"/>
            </g>
            <g transform="matrix(1,0,0,1,274.268,95.789)">
                <path d="M0,46.441C0.685,45.862 1.304,45.234 1.901,44.589C1.304,45.234 0.685,45.862 0,46.441M50.473,-4.111C43.076,-11.509 34.033,-15.208 23.347,-15.208C18.353,-15.208 13.624,-14.38 9.153,-12.746L7.732,-11.912L17.5,-5.61C19.388,-5.979 21.336,-6.166 23.347,-6.166C31.362,-6.166 38.143,-3.392 43.692,2.156C49.172,7.774 51.912,14.795 51.912,23.22C51.912,31.645 49.172,38.668 43.692,44.284C38.143,49.832 31.362,52.607 23.347,52.607C18.224,52.607 13.718,51.579 9.799,49.571C8.112,48.706 6.522,47.678 5.058,46.441C4.132,45.659 3.305,44.803 2.529,43.91C-0.775,40.107 -2.757,35.312 -3.368,29.487C-3.368,29.487 -3.365,29.485 -3.365,29.484C-3.821,26.718 -3.803,23.774 -3.308,20.651L-20.236,20.651L-20.236,29.487L-12.696,29.487C-12.143,37.62 -9.478,44.306 -4.742,49.571C-4.387,49.966 -4.055,50.378 -3.676,50.757C-1.776,52.772 0.297,54.495 2.529,55.951C8.344,59.742 15.28,61.649 23.347,61.649C34.033,61.649 43.076,57.949 50.473,50.552C57.872,43.154 61.57,34.044 61.57,23.22C61.57,12.398 57.872,3.287 50.473,-4.111" style="fill:rgb(103,103,103);fill-rule:nonzero;"/>
            </g>
            <g transform="matrix(1,0,0,1,261.186,183.055)">
                <path d="M0,0C0,2.677 0.779,4.845 2.337,6.504C3.896,8.164 5.826,8.994 8.13,8.994C10.433,8.994 12.364,8.164 13.923,6.504C15.48,4.845 16.26,2.677 16.26,0C16.26,-2.643 15.48,-4.793 13.923,-6.453C12.33,-8.146 10.399,-8.993 8.13,-8.993C5.86,-8.993 3.929,-8.146 2.337,-6.453C0.779,-4.793 0,-2.643 0,0M-4.675,0C-4.675,-3.827 -3.473,-6.994 -1.067,-9.502C1.372,-12.008 4.437,-13.262 8.13,-13.262C11.822,-13.262 14.871,-12.008 17.276,-9.502C19.715,-6.994 20.935,-3.827 20.935,0C20.935,3.861 19.715,7.029 17.276,9.502C14.871,12.009 11.822,13.262 8.13,13.262C4.437,13.262 1.372,12.009 -1.067,9.502C-3.473,6.995 -4.675,3.828 -4.675,0" style="fill:rgb(103,103,103);fill-rule:nonzero;"/>
            </g>
            <g transform="matrix(1,0,0,1,288.141,183.055)">
                <path d="M0,0C0,2.677 0.778,4.845 2.337,6.504C3.896,8.164 5.825,8.994 8.13,8.994C10.433,8.994 12.363,8.164 13.923,6.504C15.48,4.845 16.26,2.677 16.26,0C16.26,-2.643 15.48,-4.793 13.923,-6.453C12.33,-8.146 10.398,-8.993 8.13,-8.993C5.86,-8.993 3.929,-8.146 2.337,-6.453C0.778,-4.793 0,-2.643 0,0M-4.675,0C-4.675,-3.827 -3.473,-6.994 -1.067,-9.502C1.372,-12.008 4.437,-13.262 8.13,-13.262C11.821,-13.262 14.87,-12.008 17.276,-9.502C19.715,-6.994 20.935,-3.827 20.935,0C20.935,3.861 19.715,7.029 17.276,9.502C14.87,12.009 11.821,13.262 8.13,13.262C4.437,13.262 1.372,12.009 -1.067,9.502C-3.473,6.995 -4.675,3.828 -4.675,0" style="fill:rgb(103,103,103);fill-rule:nonzero;"/>
            </g>
            <g transform="matrix(1,0,0,1,324.291,163.39)">
                <path d="M0,28.659C2.303,28.659 4.183,27.829 5.64,26.169C7.164,24.51 7.927,22.342 7.927,19.665C7.927,17.056 7.164,14.906 5.64,13.212C4.148,11.518 2.269,10.672 0,10.672C-2.236,10.672 -4.116,11.518 -5.641,13.212C-7.165,14.906 -7.927,17.056 -7.927,19.665C-7.927,22.307 -7.165,24.459 -5.641,26.118C-4.116,27.812 -2.236,28.659 0,28.659M-0.763,32.927C-4.015,32.927 -6.81,31.64 -9.146,29.065C-11.451,26.457 -12.602,23.323 -12.602,19.665C-12.602,16.007 -11.451,12.874 -9.146,10.264C-6.81,7.691 -4.015,6.403 -0.763,6.403C1.066,6.403 2.734,6.793 4.242,7.572C5.749,8.351 6.91,9.385 7.723,10.672L7.927,10.672L7.723,7.216L7.723,-4.268L12.397,-4.268L12.397,32.114L7.927,32.114L7.927,28.659L7.723,28.659C6.91,29.946 5.749,30.979 4.242,31.759C2.734,32.537 1.066,32.927 -0.763,32.927" style="fill:rgb(103,103,103);fill-rule:nonzero;"/>
            </g>
            <g transform="matrix(1,0,0,1,359.679,177.516)">
                <path d="M0,11.078C0,13.246 -0.948,15.075 -2.845,16.565C-4.743,18.056 -7.131,18.801 -10.01,18.801C-12.517,18.801 -14.719,18.148 -16.615,16.845C-18.513,15.541 -19.867,13.821 -20.68,11.687L-16.514,9.909C-15.903,11.4 -15.015,12.559 -13.846,13.39C-12.677,14.22 -11.399,14.635 -10.01,14.635C-8.52,14.635 -7.274,14.312 -6.274,13.669C-5.276,13.026 -4.776,12.264 -4.776,11.383C-4.776,9.791 -5.995,8.622 -8.435,7.876L-12.703,6.809C-17.547,5.59 -19.969,3.253 -19.969,-0.202C-19.969,-2.472 -19.046,-4.293 -17.199,-5.665C-15.354,-7.037 -12.99,-7.723 -10.111,-7.723C-7.91,-7.723 -5.919,-7.197 -4.141,-6.148C-2.362,-5.098 -1.117,-3.692 -0.406,-1.931L-4.572,-0.202C-5.048,-1.252 -5.817,-2.074 -6.885,-2.667C-7.951,-3.259 -9.146,-3.557 -10.467,-3.557C-11.687,-3.557 -12.779,-3.251 -13.744,-2.642C-14.71,-2.032 -15.192,-1.286 -15.192,-0.406C-15.192,1.016 -13.854,2.033 -11.179,2.642L-7.418,3.608C-2.473,4.828 0,7.317 0,11.078" style="fill:rgb(103,103,103);fill-rule:nonzero;"/>
            </g>
            <g transform="matrix(1,0,0,1,198.711,183.183)">
                <path d="M0,0C0,2.676 0.779,4.844 2.337,6.504C3.896,8.164 5.826,8.993 8.13,8.993C10.434,8.993 12.364,8.164 13.923,6.504C15.48,4.844 16.26,2.676 16.26,0C16.26,-2.643 15.48,-4.793 13.923,-6.453C12.33,-8.146 10.399,-8.994 8.13,-8.994C5.86,-8.994 3.929,-8.146 2.337,-6.453C0.779,-4.793 0,-2.643 0,0M-4.674,0C-4.674,-3.828 -3.473,-6.995 -1.067,-9.502C1.372,-12.009 4.437,-13.262 8.13,-13.262C11.822,-13.262 14.871,-12.009 17.276,-9.502C19.715,-6.995 20.935,-3.828 20.935,0C20.935,3.861 19.715,7.029 17.276,9.502C14.871,12.009 11.822,13.262 8.13,13.262C4.437,13.262 1.372,12.009 -1.067,9.502C-3.473,6.995 -4.674,3.828 -4.674,0" style="fill:rgb(226,63,52);fill-rule:nonzero;"/>
            </g>
            <g transform="matrix(1,0,0,1,215.638,207.42)">
                <path d="M0,-37.755L0,-31.133L-0.19,-31.133C1.239,-29.396 2.583,-26.867 2.583,-23.502C2.583,-17.635 0.613,-15.137 0,-14.281L0,-12.044C0,-9.537 -0.666,-7.569 -1.999,-6.142C-3.332,-4.713 -5.188,-3.999 -7.569,-3.999C-9.124,-3.999 -10.489,-4.412 -11.663,-5.236C-12.837,-6.063 -13.662,-7.157 -14.138,-8.522L-18.28,-6.808C-17.931,-5.793 -17.423,-4.872 -16.756,-4.047C-16.09,-3.222 -15.289,-2.508 -14.352,-1.904C-13.417,-1.302 -12.377,-0.833 -11.234,-0.5C-10.092,-0.167 -8.871,0 -7.569,0C-4.015,0 -1.159,-1.079 1,-3.237C3.126,-5.364 4.189,-8.3 4.189,-12.044L4.189,-37.755L0,-37.755Z" style="fill:rgb(226,63,52);fill-rule:nonzero;"/>
            </g>
            <g transform="matrix(1,0,0,1,232.716,183.183)">
                <path d="M0,0C0,2.676 0.779,4.844 2.337,6.504C3.896,8.164 5.826,8.993 8.13,8.993C10.434,8.993 12.364,8.164 13.923,6.504C15.48,4.844 16.26,2.676 16.26,0C16.26,-2.643 15.48,-4.793 13.923,-6.453C12.33,-8.146 10.399,-8.994 8.13,-8.994C5.86,-8.994 3.929,-8.146 2.337,-6.453C0.779,-4.793 0,-2.643 0,0M-4.674,0C-4.674,-3.828 -3.472,-6.995 -1.067,-9.502C1.372,-12.009 4.437,-13.262 8.13,-13.262C11.822,-13.262 14.871,-12.009 17.276,-9.502C19.715,-6.995 20.935,-3.828 20.935,0C20.935,3.861 19.715,7.029 17.276,9.502C14.871,12.009 11.822,13.262 8.13,13.262C4.437,13.262 1.372,12.009 -1.067,9.502C-3.472,6.995 -4.674,3.828 -4.674,0" style="fill:rgb(103,103,103);fill-rule:nonzero;"/>
            </g>
            <g transform="matrix(1,0,0,1,249.643,207.42)">
                <path d="M0,-37.755L0,-31.133L-0.19,-31.133C1.239,-29.396 2.583,-26.867 2.583,-23.502C2.583,-17.635 0.613,-15.137 0,-14.281L0,-12.044C0,-9.537 -0.666,-7.569 -1.999,-6.142C-3.332,-4.713 -5.188,-3.999 -7.569,-3.999C-9.124,-3.999 -10.489,-4.412 -11.663,-5.236C-12.837,-6.063 -13.662,-7.157 -14.138,-8.522L-18.28,-6.808C-17.931,-5.793 -17.423,-4.872 -16.756,-4.047C-16.09,-3.222 -15.289,-2.508 -14.352,-1.904C-13.417,-1.302 -12.377,-0.833 -11.234,-0.5C-10.092,-0.167 -8.871,0 -7.569,0C-4.015,0 -1.159,-1.079 1,-3.237C3.126,-5.364 4.189,-8.3 4.189,-12.044L4.189,-37.755L0,-37.755Z" style="fill:rgb(103,103,103);fill-rule:nonzero;"/>
            </g>
            <g transform="matrix(1,0,0,1,362.657,198.16)">
                <path d="M0,-0.327L0.583,-0.327C0.692,-0.327 0.786,-0.361 0.862,-0.43C0.937,-0.496 0.976,-0.581 0.976,-0.682C0.976,-0.919 0.819,-1.037 0.507,-1.037L0,-1.037L0,-0.327ZM1.001,1.269L0.304,0.204L0,0.204L0,1.269L-0.583,1.269L-0.583,-1.595L0.634,-1.595C0.887,-1.595 1.104,-1.507 1.286,-1.329C1.468,-1.15 1.559,-0.935 1.559,-0.682C1.559,-0.488 1.499,-0.313 1.381,-0.157C1.263,0 1.111,0.104 0.925,0.153L0.899,0.179L1.66,1.243L1.66,1.269L1.001,1.269ZM-1.914,-0.163C-1.914,0.462 -1.686,1.003 -1.229,1.46C-0.773,1.915 -0.232,2.143 0.393,2.143C1.026,2.143 1.567,1.92 2.015,1.472C2.471,1.016 2.699,0.47 2.699,-0.163C2.699,-0.805 2.476,-1.349 2.027,-1.798C1.58,-2.245 1.035,-2.47 0.393,-2.47C-0.241,-2.47 -0.785,-2.241 -1.242,-1.785C-1.689,-1.337 -1.914,-0.797 -1.914,-0.163M3.307,-0.163C3.307,0.64 3.021,1.328 2.445,1.902C1.88,2.469 1.195,2.751 0.393,2.751C-0.418,2.751 -1.106,2.469 -1.673,1.902C-2.238,1.336 -2.521,0.649 -2.521,-0.163C-2.521,-0.966 -2.238,-1.65 -1.673,-2.216C-1.099,-2.79 -0.41,-3.078 0.393,-3.078C1.187,-3.078 1.871,-2.79 2.445,-2.216C3.021,-1.64 3.307,-0.956 3.307,-0.163" style="fill:rgb(103,103,103);fill-rule:nonzero;"/>
            </g>
        </g>
    </g>
</svg>
