<svg width="185" height="47" viewBox="0 0 185 47" fill="none" xmlns="http://www.w3.org/2000/svg">
<path d="M31.5878 39.6145C29.1969 40.8424 26.4473 41.4706 23.3218 41.4706C18.4316 41.4706 14.2938 39.7742 10.9084 36.3814C7.56434 32.9468 5.89289 28.6523 5.89289 23.5004C5.89289 18.348 7.56434 14.0545 10.9084 10.6194C14.2938 7.22612 18.4316 5.52974 23.3218 5.52974C25.2788 5.52974 27.139 5.82068 28.9054 6.39495C28.9054 6.39495 30.0511 6.4765 32.9857 7.95468C35.0878 9.0136 37.0965 10.6586 37.0965 10.6586L39.1776 8.67859L41.8089 6.8338C41.6885 6.89747 41.1453 6.42826 40.1017 5.6659C39.3853 5.14281 37.724 4.12258 36.4632 3.4381C34.2795 2.25282 32.6964 1.77307 32.6629 1.7596C29.7369 0.587542 26.6227 0.000288146 23.3218 0.000288146C16.8017 0.000288146 11.2845 2.26237 6.77072 6.78629C2.25674 11.3105 0 16.882 0 23.5004C0 30.1193 2.25674 35.6904 6.77072 40.214C11.2845 44.7382 16.8017 46.9998 23.3218 46.9998C28.2442 46.9998 32.4757 45.8346 36.0241 43.5159C34.6621 42.626 33.3976 41.5714 32.2382 40.3397C32.0068 40.108 31.8045 39.856 31.5878 39.6145" fill="#E83639"/>
<path d="M23.6781 19.9689H18.2866V14.5655H23.6781V19.9689Z" fill="#E83639"/>
<path d="M23.6781 34.6041H18.2866V29.2009H23.6781V34.6041Z" fill="#E83639"/>
<path d="M16.8195 26.8983H11.4282V21.495H16.8195V26.8983Z" fill="#E83639"/>
<path d="M121.069 23.324C121.069 24.9605 121.544 26.2864 122.495 27.3013C123.445 28.3163 124.623 28.8237 126.029 28.8237C127.434 28.8237 128.612 28.3163 129.563 27.3013C130.514 26.2864 130.989 24.9605 130.989 23.324C130.989 21.7081 130.514 20.393 129.563 19.3777C128.592 18.3423 127.413 17.8241 126.029 17.8241C124.644 17.8241 123.466 18.3423 122.495 19.3777C121.544 20.393 121.069 21.7081 121.069 23.324V23.324ZM118.216 23.324C118.216 20.9832 118.95 19.0466 120.417 17.5133C121.906 15.9805 123.776 15.214 126.029 15.214C128.282 15.214 130.142 15.9805 131.61 17.5133C133.098 19.0466 133.842 20.9832 133.842 23.324C133.842 25.6854 133.098 27.6225 131.61 29.1345C130.142 30.6678 128.282 31.4338 126.029 31.4338C123.776 31.4338 121.906 30.6678 120.417 29.1345C118.95 27.6017 118.216 25.6651 118.216 23.324Z" fill="#575B5C"/>
<path d="M137.514 23.324C137.514 24.9605 137.99 26.2864 138.94 27.3013C139.891 28.3163 141.069 28.8237 142.475 28.8237C143.88 28.8237 145.058 28.3163 146.009 27.3013C146.96 26.2864 147.436 24.9605 147.436 23.324C147.436 21.7081 146.96 20.393 146.009 19.3777C145.038 18.3423 143.859 17.8241 142.475 17.8241C141.09 17.8241 139.912 18.3423 138.94 19.3777C137.99 20.393 137.514 21.7081 137.514 23.324V23.324ZM134.662 23.324C134.662 20.9832 135.396 19.0466 136.864 17.5133C138.352 15.9805 140.222 15.214 142.475 15.214C144.727 15.214 146.588 15.9805 148.056 17.5133C149.544 19.0466 150.288 20.9832 150.288 23.324C150.288 25.6854 149.544 27.6225 148.056 29.1345C146.588 30.6678 144.727 31.4338 142.475 31.4338C140.222 31.4338 138.352 30.6678 136.864 29.1345C135.396 27.6017 134.662 25.6651 134.662 23.324Z" fill="#575B5C"/>
<path d="M159.572 28.8237C160.977 28.8237 162.124 28.3163 163.013 27.3013C163.943 26.2864 164.408 24.9605 164.408 23.324C164.408 21.7289 163.943 20.4138 163.013 19.3777C162.103 18.3423 160.956 17.8241 159.572 17.8241C158.207 17.8241 157.06 18.3423 156.13 19.3777C155.2 20.4138 154.735 21.7289 154.735 23.324C154.735 24.9397 155.2 26.2553 156.13 27.2702C157.06 28.3063 158.207 28.8237 159.572 28.8237V28.8237ZM159.106 31.4338C157.122 31.4338 155.417 30.6469 153.991 29.0723C152.585 27.4776 151.883 25.561 151.883 23.324C151.883 21.0868 152.585 19.1708 153.991 17.5755C155.417 16.0016 157.122 15.214 159.106 15.214C160.223 15.214 161.24 15.4523 162.16 15.9286C163.08 16.4054 163.788 17.037 164.284 17.8241H164.408L164.284 15.7111V8.68858H167.136V30.9369H164.408V28.8237H164.284C163.788 29.6111 163.08 30.2431 162.16 30.7194C161.24 31.1956 160.223 31.4338 159.106 31.4338Z" fill="#575B5C"/>
<path d="M181.164 26.711C181.164 28.0369 180.585 29.1553 179.428 30.0668C178.27 30.9783 176.813 31.4338 175.056 31.4338C173.527 31.4338 172.183 31.0348 171.026 30.2375C169.868 29.4404 169.042 28.3888 168.546 27.0837L171.088 25.9961C171.46 26.9079 172.003 27.6174 172.716 28.1245C173.429 28.6325 174.209 28.8859 175.056 28.8859C175.966 28.8859 176.725 28.6893 177.335 28.2955C177.945 27.9024 178.249 27.4364 178.249 26.8972C178.249 25.9239 177.505 25.2091 176.017 24.7533L173.413 24.1006C170.457 23.3549 168.98 21.9258 168.98 19.8129C168.98 18.4253 169.543 17.3115 170.669 16.4725C171.796 15.6335 173.237 15.214 174.994 15.214C176.338 15.214 177.552 15.5356 178.637 16.1774C179.722 16.8195 180.482 17.6794 180.916 18.7562L178.374 19.8129C178.084 19.1708 177.614 18.6685 176.963 18.3058C176.312 17.9434 175.583 17.7619 174.777 17.7619C174.033 17.7619 173.367 17.9483 172.778 18.3212C172.189 18.694 171.894 19.1499 171.894 19.6885C171.894 20.5586 172.71 21.1801 174.343 21.5528L176.637 22.1433C179.655 22.8888 181.164 24.4115 181.164 26.711" fill="#575B5C"/>
<path d="M82.9496 23.402C82.9496 25.0387 83.4246 26.3645 84.3755 27.3791C85.326 28.3945 86.504 28.9019 87.91 28.9019C89.3152 28.9019 90.4931 28.3945 91.4441 27.3791C92.3946 26.3645 92.8704 25.0387 92.8704 23.402C92.8704 21.786 92.3946 20.4709 91.4441 19.4558C90.4724 18.4202 89.2942 17.9022 87.91 17.9022C86.525 17.9022 85.3468 18.4202 84.3755 19.4558C83.4246 20.4709 82.9496 21.786 82.9496 23.402ZM80.0971 23.402C80.0971 21.0613 80.8306 19.1245 82.2984 17.5912C83.7864 16.0587 85.6569 15.2919 87.91 15.2919C90.1623 15.2919 92.0225 16.0587 93.4905 17.5912C94.9785 19.1245 95.7226 21.0613 95.7226 23.402C95.7226 25.7635 94.9785 27.7007 93.4905 29.2126C92.0225 30.7457 90.1623 31.5117 87.91 31.5117C85.6569 31.5117 83.7864 30.7457 82.2984 29.2126C80.8306 27.6798 80.0971 25.7432 80.0971 23.402" fill="#E83639"/>
<path d="M93.2773 15.1361V19.185H93.1615C94.0333 20.2478 94.8531 21.7941 94.8531 23.8521C94.8531 27.4399 93.6514 28.9672 93.2773 29.4901V30.8585C93.2773 32.3916 92.8707 33.595 92.0575 34.4683C91.2441 35.3416 90.1113 35.7782 88.6592 35.7782C87.7101 35.7782 86.8774 35.526 86.1612 35.0212C85.4446 34.5165 84.9412 33.847 84.6509 33.0129L82.1239 34.0608C82.3367 34.6815 82.6468 35.2441 83.0534 35.7493C83.46 36.2536 83.9487 36.6905 84.5202 37.0592C85.091 37.4273 85.7255 37.7141 86.4227 37.9179C87.1198 38.1216 87.865 38.2235 88.6592 38.2235C90.8275 38.2235 92.5704 37.5637 93.8874 36.2438C95.1844 34.9436 95.8334 33.1483 95.8334 30.8585V15.1361H93.2773Z" fill="#E83639"/>
<path d="M103.697 23.402C103.697 25.0387 104.173 26.3645 105.123 27.3791C106.074 28.3945 107.252 28.9019 108.658 28.9019C110.063 28.9019 111.241 28.3945 112.192 27.3791C113.143 26.3645 113.618 25.0387 113.618 23.402C113.618 21.786 113.143 20.4709 112.192 19.4558C111.22 18.4202 110.042 17.9022 108.658 17.9022C107.273 17.9022 106.095 18.4202 105.123 19.4558C104.173 20.4709 103.697 21.786 103.697 23.402ZM100.845 23.402C100.845 21.0613 101.578 19.1245 103.046 17.5912C104.534 16.0587 106.405 15.2919 108.658 15.2919C110.91 15.2919 112.77 16.0587 114.238 17.5912C115.726 19.1245 116.47 21.0613 116.47 23.402C116.47 25.7635 115.726 27.7007 114.238 29.2126C112.77 30.7457 110.91 31.5117 108.658 31.5117C106.405 31.5117 104.534 30.7457 103.046 29.2126C101.578 27.6798 100.845 25.7432 100.845 23.402" fill="#575B5C"/>
<path d="M114.025 15.1361V19.185H113.909C114.781 20.2478 115.601 21.7941 115.601 23.8521C115.601 27.4399 114.399 28.9672 114.025 29.4901V30.8585C114.025 32.3916 113.619 33.595 112.805 34.4683C111.992 35.3416 110.859 35.7782 109.407 35.7782C108.458 35.7782 107.625 35.526 106.909 35.0212C106.193 34.5165 105.689 33.847 105.399 33.0129L102.872 34.0608C103.084 34.6815 103.395 35.2441 103.801 35.7493C104.208 36.2536 104.697 36.6905 105.268 37.0592C105.839 37.4273 106.473 37.7141 107.17 37.9179C107.867 38.1216 108.613 38.2235 109.407 38.2235C111.575 38.2235 113.318 37.5637 114.635 36.2438C115.932 34.9436 116.581 33.1483 116.581 30.8585V15.1361H114.025" fill="#575B5C"/>
<path d="M182.981 32.3612H183.336C183.404 32.3612 183.46 32.3402 183.507 32.2985C183.553 32.2577 183.576 32.2058 183.576 32.1437C183.576 31.9995 183.481 31.9271 183.29 31.9271H182.981V32.3612ZM183.592 33.3368L183.166 32.6863H182.981V33.3368H182.625V31.5859H183.367C183.522 31.5859 183.655 31.6403 183.766 31.7485C183.876 31.8574 183.932 31.989 183.932 32.1437C183.932 32.2628 183.896 32.3695 183.824 32.4653C183.752 32.5609 183.659 32.6243 183.545 32.6554L183.53 32.6708L183.994 33.3214V33.3368H183.592ZM181.814 32.4619C181.814 32.8439 181.953 33.1745 182.231 33.4538C182.509 33.7324 182.839 33.8718 183.221 33.8718C183.607 33.8718 183.937 33.7351 184.21 33.4615C184.489 33.1822 184.628 32.8488 184.628 32.4619C184.628 32.0693 184.491 31.7358 184.218 31.462C183.945 31.1885 183.612 31.051 183.221 31.051C182.834 31.051 182.502 31.1907 182.223 31.4698C181.95 31.7434 181.814 32.0742 181.814 32.4619V32.4619ZM184.999 32.4619C184.999 32.9522 184.824 33.3736 184.473 33.7246C184.128 34.0706 183.711 34.2437 183.221 34.2437C182.726 34.2437 182.306 34.0706 181.961 33.7246C181.615 33.3786 181.442 32.9578 181.442 32.4619C181.442 31.9706 181.615 31.5521 181.961 31.2061C182.311 30.8551 182.731 30.6791 183.221 30.6791C183.705 30.6791 184.122 30.8551 184.473 31.2061C184.824 31.5577 184.999 31.9765 184.999 32.4619Z" fill="#575B5C"/>
<path d="M50.3458 20.5804C51.1644 20.5699 51.8637 20.2743 52.4447 19.6921C53.0456 19.0897 53.3459 18.3834 53.3463 17.5728C53.3459 16.7625 53.0456 16.056 52.4447 15.4535C51.8637 14.8717 51.1644 14.5761 50.3458 14.5655C49.5265 14.5553 48.8167 14.8513 48.2156 15.4535C47.6348 16.0359 47.3448 16.7419 47.3453 17.5728C47.3448 18.404 47.6348 19.11 48.2156 19.6921C48.8167 20.2943 49.5265 20.5904 50.3458 20.5804Z" fill="#ECAD1E"/>
<path d="M59.9168 22.9426C59.336 22.3605 58.6367 22.0649 57.8181 22.0544C56.9986 22.0441 56.2888 22.3404 55.6879 22.9426C55.1071 23.5247 54.8171 24.2309 54.8173 25.0619C54.8171 25.8931 55.1071 26.5991 55.6879 27.1812C56.2888 27.7836 56.9986 28.0797 57.8181 28.0692C58.6367 28.0589 59.336 27.7633 59.9168 27.1812C60.5179 26.5788 60.8182 25.8722 60.8186 25.0619C60.8182 24.2514 60.5179 23.545 59.9168 22.9426Z" fill="#3CAE53"/>
<path d="M50.4413 29.4477C49.622 29.4375 48.9122 29.7333 48.3111 30.3357C47.7303 30.9178 47.4403 31.6238 47.4408 32.455C47.4403 33.2859 47.7303 33.9922 48.3111 34.5743C48.9122 35.1768 49.622 35.4726 50.4413 35.4623C51.2599 35.452 51.9594 35.1564 52.5402 34.5743C53.1413 33.9719 53.4416 33.2654 53.4418 32.455C53.4416 31.6447 53.1413 30.9381 52.5402 30.3357C51.9594 29.7538 51.2599 29.458 50.4413 29.4477Z" fill="#5377C4"/>
<path d="M44.5053 23.2611C44.0117 22.7663 43.4174 22.5151 42.7218 22.5064C42.5857 22.5044 42.4559 22.5213 42.3269 22.5394C41.7962 22.6144 41.3227 22.8493 40.9117 23.2611C40.4184 23.7557 40.1718 24.3555 40.1721 25.0616C40.1718 25.7679 40.4184 26.3679 40.9117 26.8626C41.4226 27.3744 42.0257 27.6259 42.7218 27.6171C42.722 27.6171 42.7225 27.6171 42.7228 27.6171C43.4179 27.608 44.0119 27.357 44.5053 26.8626C45.0162 26.3507 45.2713 25.7505 45.2715 25.0616C45.2713 24.3732 45.0162 23.7729 44.5053 23.2611" fill="#E83639"/>
<path d="M42.9998 28.5731C42.9993 28.5731 42.9989 28.5731 42.9984 28.5731C41.9895 28.5858 41.1157 28.2215 40.3756 27.4797C39.6606 26.7631 39.3034 25.8937 39.3039 24.8703C39.3034 23.847 39.6606 22.9777 40.3756 22.261C40.499 22.1373 40.6287 22.0313 40.7602 21.9294H33.7153C33.3761 23.8394 33.3336 25.6378 33.5662 27.3328H39.6218C39.2489 30.8945 38.0401 33.8269 36.0241 36.1524C36.4978 36.699 37.0024 37.2223 37.5668 37.7004C38.4604 38.4573 39.4305 39.0855 40.4604 39.6144C43.2693 36.4844 44.8739 32.5267 45.2715 27.74C44.6206 28.2739 43.868 28.5619 42.9998 28.5731" fill="#E83639"/>
<path d="M34.481 37.7006C34.8989 37.3465 35.2769 36.9625 35.6407 36.568C35.2769 36.9625 34.8989 37.3465 34.481 37.7006ZM65.2774 6.78623C60.7634 2.26231 55.2463 0.000227111 48.7263 0.000227111C45.6791 0.000227111 42.7934 0.506912 40.0655 1.50608L39.1988 2.01619L45.1586 5.86984C46.3104 5.64405 47.4994 5.52944 48.7263 5.52944C53.6163 5.52944 57.754 7.22606 61.1394 10.6193C64.4838 14.0544 66.1551 18.3479 66.1551 23.5C66.1551 28.6523 64.4838 32.9467 61.1394 36.3813C57.754 39.7742 53.6163 41.4706 48.7263 41.4706C45.6009 41.4706 42.8513 40.8423 40.4604 39.6144C39.4305 39.0857 38.4604 38.4573 37.5669 37.7006C37.0024 37.2223 36.4978 36.699 36.0241 36.1524C34.0077 33.8269 32.799 30.8946 32.4264 27.3328C32.4264 27.3328 32.4276 27.3314 32.4278 27.3311C32.1498 25.6396 32.161 23.839 32.4628 21.9295H22.1339V27.3328H26.7349C27.072 32.3061 28.6982 36.3946 31.5878 39.6144C31.8045 39.856 32.0068 40.1079 32.2382 40.3396C33.3976 41.5714 34.6621 42.626 36.0241 43.5159C39.5722 45.8345 43.804 46.9997 48.7263 46.9997C55.2463 46.9997 60.7634 44.7382 65.2774 40.2139C69.7911 35.6903 72.0479 30.1192 72.0479 23.5C72.0479 16.882 69.7911 11.3104 65.2774 6.78623Z" fill="#575B5C"/>
</svg>
