<?xml version="1.0" encoding="UTF-8" standalone="no"?>
<svg
   xmlns:dc="http://purl.org/dc/elements/1.1/"
   xmlns:cc="http://creativecommons.org/ns#"
   xmlns:rdf="http://www.w3.org/1999/02/22-rdf-syntax-ns#"
   xmlns:svg="http://www.w3.org/2000/svg"
   xmlns="http://www.w3.org/2000/svg"
   viewBox="0 0 829.44 210.25333"
   height="210.25333"
   width="829.44"
   xml:space="preserve"
   id="svg2"
   version="1.1"><metadata
     id="metadata8"><rdf:RDF><cc:Work
         rdf:about=""><dc:format>image/svg+xml</dc:format><dc:type
           rdf:resource="http://purl.org/dc/dcmitype/StillImage" /></cc:Work></rdf:RDF></metadata><defs
     id="defs6" /><g
     transform="matrix(1.3333333,0,0,-1.3333333,0,210.25333)"
     id="g10"><g
       transform="scale(0.1)"
       id="g12"><path
         id="path14"
         style="fill:#ffffff;fill-opacity:1;fill-rule:nonzero;stroke:none"
         d="M 1062.18,247.789 C 981.781,206.602 889.32,185.52 784.227,185.52 619.785,185.52 480.648,242.43 366.813,356.27 254.355,471.5 198.16,615.57 198.16,788.438 c 0,172.863 56.195,316.912 168.653,432.172 113.835,113.84 252.972,170.75 417.414,170.75 65.804,0 128.363,-9.76 187.746,-29.02 0,0 38.537,-2.74 137.217,-52.33 70.68,-35.53 138.23,-90.72 138.23,-90.72 l 69.97,66.43 88.48,61.89 c -4.04,-2.13 -22.31,13.61 -57.4,39.18 -24.09,17.56 -79.95,51.78 -122.35,74.75 -73.43,39.77 -126.66,55.86 -127.78,56.31 -98.399,39.33 -203.113,59.03 -314.113,59.03 -219.25,0 -404.774,-75.9 -556.555,-227.68 C 75.8906,1197.42 0,1010.48 0,788.438 0,566.359 75.8906,379.461 227.672,227.68 379.453,75.8789 564.977,0.0117188 784.227,0.0117188 c 165.515,0 307.813,39.0976812 427.123,116.8862812 -45.79,29.864 -88.31,65.231 -127.3,106.563 -7.78,7.777 -14.58,16.219 -21.87,24.328" /><path
         id="path16"
         style="fill:#ffffff;fill-opacity:1;fill-rule:nonzero;stroke:none"
         d="M 796.203,906.918 H 614.914 V 1088.21 H 796.203 V 906.918" /><path
         id="path18"
         style="fill:#ffffff;fill-opacity:1;fill-rule:nonzero;stroke:none"
         d="M 796.203,415.891 H 614.914 V 597.184 H 796.203 V 415.891" /><path
         id="path20"
         style="fill:#ffffff;fill-opacity:1;fill-rule:nonzero;stroke:none"
         d="M 565.582,674.43 H 384.289 V 855.715 H 565.582 V 674.43" /><path
         id="path22"
         style="fill:#ffffff;fill-opacity:1;fill-rule:nonzero;stroke:none"
         d="m 4237.89,522.262 c -75.76,0 -138.65,25.699 -188.7,77.136 -49.36,51.426 -74.01,116.407 -74.01,194.954 0,78.531 24.65,143.507 74.01,194.953 50.05,51.425 112.94,77.145 188.7,77.145 75.74,0 138.29,-25.72 187.66,-77.145 50.04,-51.446 75.05,-116.422 75.05,-194.953 0,-79.227 -25.01,-144.219 -75.05,-194.954 -49.37,-51.437 -111.92,-77.136 -187.66,-77.136 m 0,456.613 c -46.57,0 -86.19,-17.383 -118.85,-52.125 -31.97,-34.059 -47.96,-78.184 -47.96,-132.398 0,-54.914 15.99,-99.399 47.96,-133.438 31.97,-34.062 71.58,-51.086 118.85,-51.086 47.26,0 86.87,17.024 118.85,51.086 31.95,34.039 47.95,78.524 47.95,133.438 0,54.214 -16,98.339 -47.95,132.398 -32.68,34.742 -72.3,52.125 -118.85,52.125" /><path
         id="path24"
         style="fill:#ffffff;fill-opacity:1;fill-rule:nonzero;stroke:none"
         d="m 4790.91,522.262 c -75.76,0 -138.65,25.699 -188.7,77.136 -49.36,51.426 -74.02,116.407 -74.02,194.954 0,78.531 24.66,143.507 74.02,194.953 50.05,51.425 112.94,77.145 188.7,77.145 75.74,0 138.29,-25.72 187.65,-77.145 50.03,-51.446 75.05,-116.422 75.05,-194.953 0,-79.227 -25.02,-144.219 -75.05,-194.954 -49.36,-51.437 -111.91,-77.136 -187.65,-77.136 m 0,456.613 c -46.57,0 -86.19,-17.383 -118.86,-52.125 -31.97,-34.059 -47.95,-78.184 -47.95,-132.398 0,-54.914 15.98,-99.399 47.95,-133.438 31.97,-34.062 71.58,-51.086 118.86,-51.086 47.25,0 86.86,17.024 118.85,51.086 31.95,34.039 47.95,78.524 47.95,133.438 0,54.214 -16,98.339 -47.95,132.398 -32.69,34.742 -72.3,52.125 -118.85,52.125" /><path
         id="path26"
         style="fill:#ffffff;fill-opacity:1;fill-rule:nonzero;stroke:none"
         d="m 5350.16,522.262 c -66.72,0 -124.07,26.398 -172.02,79.226 -47.27,53.508 -70.88,117.805 -70.88,192.864 0,75.062 23.61,139.339 70.88,192.867 47.95,52.801 105.3,79.231 172.02,79.231 37.54,0 71.75,-8 102.68,-23.98 30.92,-16 54.74,-37.19 71.42,-63.595 h 4.17 l -4.17,70.895 v 235.61 h 95.92 V 538.941 h -91.75 v 70.887 h -4.17 c -16.68,-26.426 -40.5,-47.617 -71.42,-63.598 -30.93,-15.98 -65.14,-23.968 -102.68,-23.968 m 15.64,456.613 c -45.88,0 -84.45,-17.383 -115.72,-52.125 -31.28,-34.762 -46.92,-78.891 -46.92,-132.398 0,-54.211 15.64,-98.352 46.92,-132.403 31.27,-34.758 69.84,-52.121 115.72,-52.121 47.26,0 85.82,17.024 115.71,51.086 31.28,34.039 46.92,78.524 46.92,133.438 0,53.507 -15.64,97.636 -46.92,132.398 -30.58,34.742 -69.17,52.125 -115.71,52.125" /><path
         id="path28"
         style="fill:#ffffff;fill-opacity:1;fill-rule:nonzero;stroke:none"
         d="m 5886.49,522.262 c -51.44,0 -96.61,13.379 -135.52,40.136 -38.94,26.747 -66.72,62.02 -83.41,105.813 l 85.49,36.48 c 12.51,-30.586 30.76,-54.382 54.73,-71.406 23.98,-17.039 50.21,-25.547 78.71,-25.547 30.58,0 56.12,6.602 76.63,19.817 20.49,13.183 30.75,28.828 30.75,46.914 0,32.656 -25.02,56.629 -75.06,71.933 l -87.58,21.891 c -99.38,25.02 -149.07,72.973 -149.07,143.859 0,46.559 18.92,83.926 56.82,112.068 37.87,28.16 86.35,42.23 145.42,42.23 45.17,0 86.01,-10.79 122.51,-32.32 36.48,-21.55 62.03,-50.4 76.62,-86.528 l -85.49,-35.45 c -9.75,21.539 -25.54,38.395 -47.44,50.563 -21.88,12.152 -46.39,18.246 -73.49,18.246 -25.02,0 -47.44,-6.254 -67.25,-18.766 -19.8,-12.507 -29.7,-27.804 -29.7,-45.867 0,-29.187 27.45,-50.051 82.35,-62.555 l 77.15,-19.808 c 101.46,-25.016 152.21,-76.098 152.21,-153.246 0,-44.492 -19.47,-82.016 -58.38,-112.59 -38.94,-30.59 -87.93,-45.867 -147,-45.867" /><path
         id="path30"
         style="fill:#ffffff;fill-opacity:1;fill-rule:nonzero;stroke:none"
         d="m 2789.28,791.734 c 0,-54.902 15.98,-99.394 47.95,-133.437 31.97,-34.063 71.58,-51.086 118.85,-51.086 47.26,0 86.87,17.023 118.85,51.086 31.96,34.043 47.95,78.535 47.95,133.437 0,54.211 -15.99,98.34 -47.95,132.403 -32.68,34.746 -72.29,52.125 -118.85,52.125 -46.56,0 -86.18,-17.379 -118.85,-52.125 -31.97,-34.063 -47.95,-78.192 -47.95,-132.403 z m -95.91,0 c 0,78.536 24.66,143.508 74.02,194.95 50.04,51.426 112.93,77.146 188.69,77.146 75.75,0 138.3,-25.72 187.66,-77.146 50.04,-51.442 75.06,-116.414 75.06,-194.95 0,-79.23 -25.02,-144.218 -75.06,-194.953 -49.36,-51.429 -111.91,-77.14 -187.66,-77.14 -75.76,0 -138.65,25.711 -188.69,77.14 -49.36,51.426 -74.02,116.407 -74.02,194.953" /><path
         id="path32"
         style="fill:#ffffff;fill-opacity:1;fill-rule:nonzero;stroke:none"
         d="M 3136.57,1069.06 V 933.215 h -3.9 c 29.32,-35.656 56.88,-87.535 56.88,-156.578 0,-120.383 -40.4,-171.621 -52.98,-189.172 v -45.906 c 0,-51.43 -13.67,-91.809 -41.02,-121.11 -27.35,-29.301 -65.44,-43.949 -114.27,-43.949 -31.91,0 -59.92,8.469 -84,25.391 -24.1,16.937 -41.02,39.398 -50.78,67.39 l -84.98,-35.16 c 7.16,-20.82 17.58,-39.699 31.25,-56.641 13.68,-16.929 30.11,-31.582 49.33,-43.96 19.19,-12.348 40.53,-21.969 63.97,-28.809 23.44,-6.832 48.5,-10.25 75.21,-10.25 72.92,0 131.51,22.141 175.8,66.41 43.61,43.629 65.44,103.859 65.44,180.688 v 527.501 h -85.95" /><path
         id="path34"
         style="fill:#ffffff;fill-opacity:1;fill-rule:nonzero;stroke:none"
         d="m 3653.76,519.641 c -75.76,0 -138.66,25.711 -188.7,77.14 -49.36,51.426 -74.01,116.407 -74.01,194.953 0,78.536 24.65,143.512 74.01,194.95 50.04,51.426 112.94,77.146 188.7,77.146 72.12,0 132.28,-23.32 180.48,-69.947 v -60.668 h -3.9 c 29.32,-35.656 56.89,-87.535 56.89,-156.578 0,-106.629 -31.71,-159.012 -47.69,-181.782 -49.06,-50.156 -110.99,-75.214 -185.78,-75.214 m 0,456.621 c -46.57,0 -86.19,-17.379 -118.86,-52.125 -31.97,-34.063 -47.95,-78.192 -47.95,-132.403 0,-54.902 15.98,-99.394 47.95,-133.437 31.98,-34.063 71.59,-51.086 118.86,-51.086 47.26,0 86.87,17.023 118.84,51.086 31.96,34.043 47.96,78.535 47.96,133.437 0,54.211 -16,98.34 -47.96,132.403 -32.68,34.746 -72.29,52.125 -118.84,52.125" /><path
         id="path36"
         style="fill:#ffffff;fill-opacity:1;fill-rule:nonzero;stroke:none"
         d="m 3678.95,294.461 c -26.7,0 -51.77,3.418 -75.21,10.25 -23.44,6.84 -44.77,16.461 -63.97,28.809 -19.21,12.378 -35.65,27.031 -49.32,43.96 -13.67,16.942 -24.1,35.821 -31.26,56.641 l 84.97,35.16 c 9.77,-27.992 26.69,-50.453 50.79,-67.39 24.08,-16.922 52.09,-25.391 84,-25.391 48.83,0 86.92,14.648 114.27,43.949 27.35,29.301 41.02,69.68 41.02,121.11 v 45.906 c 1.44,2.008 3.24,4.453 5.3,7.39 0.62,0.637 1.25,1.282 1.87,1.926 50.04,50.735 75.06,115.723 75.06,194.953 0,78.536 -25.02,143.512 -75.06,194.95 -2.36,2.457 -4.75,4.859 -7.17,7.199 v 75.177 h 85.95 V 541.559 c 0,-76.829 -21.82,-137.059 -65.43,-180.688 -44.29,-44.269 -102.89,-66.41 -175.81,-66.41" /><path
         id="path38"
         style="fill:#ffffff;fill-opacity:1;fill-rule:nonzero;stroke:none"
         d="m 3839.54,594.855 c 15.98,22.77 47.69,75.153 47.69,181.782 0,69.043 -27.57,120.922 -56.89,156.578 h 3.9 v 60.668 c 2.42,-2.34 4.81,-4.742 7.17,-7.199 50.04,-51.438 75.06,-116.414 75.06,-194.95 0,-79.23 -25.02,-144.218 -75.06,-194.953 -0.62,-0.644 -1.25,-1.289 -1.87,-1.926" /><path
         id="path40"
         style="fill:#ffffff;fill-opacity:1;fill-rule:nonzero;stroke:none"
         d="m 6152.97,491.148 h 11.96 c 2.25,0 4.16,0.704 5.72,2.102 1.56,1.359 2.34,3.109 2.34,5.191 0,4.84 -3.21,7.27 -9.62,7.27 h -10.4 z m 20.54,-32.75 -14.31,21.84 h -6.23 v -21.84 h -11.96 v 58.75 h 24.96 c 5.2,0 9.67,-1.808 13.4,-5.449 3.71,-3.66 5.57,-8.07 5.57,-13.258 0,-3.992 -1.21,-7.582 -3.63,-10.793 -2.43,-3.207 -5.55,-5.328 -9.36,-6.378 l -0.52,-0.508 15.6,-21.832 v -0.532 z m -59.8,29.372 c 0,-12.809 4.68,-23.911 14.04,-33.282 9.36,-9.347 20.45,-14.027 33.29,-14.027 12.98,0 24.08,4.578 33.27,13.769 9.35,9.372 14.04,20.559 14.04,33.54 0,13.171 -4.59,24.359 -13.79,33.539 -9.18,9.179 -20.36,13.781 -33.52,13.781 -13.01,0 -24.19,-4.668 -33.55,-14.039 -9.19,-9.18 -13.78,-20.27 -13.78,-33.281 z m 107.11,0 c 0,-16.461 -5.89,-30.59 -17.67,-42.36 -11.62,-11.629 -25.65,-17.43 -42.11,-17.43 -16.64,0 -30.78,5.801 -42.39,17.43 -11.61,11.61 -17.42,25.719 -17.42,42.36 0,16.468 5.81,30.519 17.42,42.14 11.78,11.77 25.91,17.668 42.39,17.668 16.28,0 30.31,-5.898 42.11,-17.668 11.78,-11.808 17.67,-25.851 17.67,-42.14" /><path
         id="path42"
         style="fill:#ffffff;fill-opacity:1;fill-rule:nonzero;stroke:none"
         d="m 1691.56,886.398 c -26.97,0 -50.38,9.934 -70.25,29.805 -19.53,19.527 -29.28,43.215 -29.26,71.102 -0.02,27.875 9.73,51.565 29.26,71.105 19.87,19.86 43.26,29.8 70.22,29.8 0.47,0 0.94,-0.01 1.41,-0.01 27.53,-0.34 51.05,-10.26 70.58,-29.79 20.21,-20.22 30.31,-43.92 30.32,-71.105 -0.01,-27.192 -10.11,-50.895 -30.32,-71.102 -19.53,-19.531 -43.05,-29.449 -70.58,-29.797 -0.46,-0.008 -0.92,-0.008 -1.38,-0.008" /><path
         id="path44"
         style="fill:#ffffff;fill-opacity:1;fill-rule:nonzero;stroke:none"
         d="m 1942.83,635.133 c -26.97,0.004 -50.38,9.937 -70.26,29.812 -19.53,19.524 -29.28,43.215 -29.26,71.098 -0.02,27.883 9.73,51.57 29.26,71.102 19.88,19.875 43.29,29.808 70.27,29.808 0.45,0 0.91,-0.004 1.37,-0.008 27.52,-0.351 51.04,-10.269 70.57,-29.8 20.21,-20.211 30.31,-43.907 30.32,-71.102 -0.01,-27.191 -10.11,-50.891 -30.32,-71.098 -19.53,-19.539 -43.05,-29.453 -70.57,-29.804 -0.47,-0.004 -0.92,-0.008 -1.38,-0.008" /><path
         id="path46"
         style="fill:#ffffff;fill-opacity:1;fill-rule:nonzero;stroke:none"
         d="m 1694.78,387.09 c -26.97,0 -50.38,9.93 -70.25,29.801 -19.53,19.531 -29.29,43.218 -29.27,71.097 -0.02,27.891 9.74,51.571 29.27,71.114 19.86,19.867 43.26,29.796 70.22,29.796 0.47,0 0.94,0 1.41,-0.007 27.52,-0.34 51.04,-10.262 70.57,-29.789 20.21,-20.211 30.31,-43.911 30.33,-71.114 -0.02,-27.179 -10.12,-50.886 -30.33,-71.097 -19.53,-19.532 -43.05,-29.442 -70.57,-29.789 -0.46,-0.012 -0.92,-0.012 -1.38,-0.012" /><path
         id="path48"
         style="fill:#ffffff;fill-opacity:1;fill-rule:nonzero;stroke:none"
         d="m 1443.49,638.355 c -26.96,0 -50.36,9.938 -70.22,29.805 -19.53,19.531 -29.28,43.215 -29.27,71.094 -0.01,27.891 9.74,51.57 29.27,71.101 16.26,16.262 35,25.54 56,28.493 4.86,0.683 9.74,1.312 14.85,1.312 0.26,0 0.52,0 0.78,-0.004 27.52,-0.347 51.04,-10.265 70.57,-29.801 20.21,-20.203 30.31,-43.906 30.33,-71.101 -0.02,-27.188 -10.12,-50.891 -30.33,-71.094 -19.52,-19.531 -43.03,-29.445 -70.54,-29.797 h -0.03 c -0.47,-0.004 -0.94,-0.008 -1.41,-0.008" /><path
         id="path50"
         style="fill:#ffffff;fill-opacity:1;fill-rule:nonzero;stroke:none"
         d="m 1445.92,618.238 -0.04,-0.011 c -33.93,-0.418 -63.32,11.808 -88.2,36.691 -24.05,24.051 -36.05,53.211 -36.04,87.547 -0.01,34.336 11.99,63.5 36.04,87.543 4.16,4.152 8.52,7.711 12.93,11.129 h -236.89 c -11.4,-64.078 -12.84,-124.414 -5.01,-181.289 h 203.62 c -12.53,-119.489 -53.18,-217.879 -120.98,-295.899 15.94,-18.34 32.9,-35.898 51.89,-51.937 30.04,-25.391 62.66,-46.481 97.29,-64.223 94.46,105.02 148.41,237.801 161.79,398.399 -21.89,-17.903 -47.2,-27.579 -76.4,-27.95" /><path
         id="path52"
         style="fill:#ffffff;fill-opacity:1;fill-rule:nonzero;stroke:none"
         d="m 1638.48,0.0117188 c -165.52,0 -307.81,39.0976812 -427.13,116.8862812 v 0 0 c -45.79,29.864 -88.31,65.231 -127.3,106.563 -0.12,0.117 -0.24,0.25 -0.37,0.371 -7.62,7.668 -14.32,15.977 -21.5,23.957 v 0 c 34.62,17.742 67.24,38.832 97.29,64.223 v 0 0 c -30.05,-25.383 -62.67,-46.481 -97.29,-64.223 v 0 0 C 965.012,355.82 910.332,492.988 898.988,659.848 h 0.004 -154.711 V 841.141 H 1091.6 c -10.15,-64.071 -10.53,-124.477 -1.17,-181.235 l -0.06,-0.058 c 12.54,-119.489 53.19,-217.879 120.98,-295.899 15.94,-18.34 32.9,-35.898 51.89,-51.937 1.76,-1.492 3.53,-2.961 5.31,-4.422 28.56,-23.43 59.38,-43.102 91.98,-59.801 v 0 0 c 80.39,-41.187 172.85,-62.269 277.95,-62.269 164.44,0 303.58,56.91 417.41,170.75 112.46,115.23 168.66,259.312 168.66,432.168 0,172.867 -56.2,316.912 -168.66,432.172 -113.83,113.84 -252.97,170.76 -417.41,170.76 -41.25,0 -81.23,-3.85 -119.96,-11.42 l -200.41,129.3 29.15,17.11 c 91.72,33.52 188.76,50.52 291.22,50.52 219.25,0 404.77,-75.9 556.55,-227.68 151.79,-151.78 227.68,-338.72 227.68,-560.762 0,-222.079 -75.89,-408.977 -227.68,-560.758 C 2043.25,75.8789 1857.73,0.0117188 1638.48,0.0117188 M 1209.48,361.922 c -0.12,-0.141 -0.24,-0.281 -0.36,-0.41 0.12,0.129 0.24,0.269 0.36,0.41" /><path
         id="path54"
         style="fill:#ffffff;fill-opacity:1;fill-rule:nonzero;stroke:none"
         d="m 1360.53,247.789 c -32.6,16.699 -63.42,36.371 -91.98,59.801 28.56,-23.43 59.38,-43.102 91.98,-59.801 v 0" /></g></g></svg>