<?xml version="1.0" encoding="UTF-8" standalone="no"?>
<svg
   xmlns:dc="http://purl.org/dc/elements/1.1/"
   xmlns:cc="http://creativecommons.org/ns#"
   xmlns:rdf="http://www.w3.org/1999/02/22-rdf-syntax-ns#"
   xmlns:svg="http://www.w3.org/2000/svg"
   xmlns="http://www.w3.org/2000/svg"
   viewBox="0 0 1009.5067 255.89333"
   height="255.89333"
   width="1009.5067"
   xml:space="preserve"
   id="svg2"
   version="1.1"><metadata
     id="metadata8"><rdf:RDF><cc:Work
         rdf:about=""><dc:format>image/svg+xml</dc:format><dc:type
           rdf:resource="http://purl.org/dc/dcmitype/StillImage" /></cc:Work></rdf:RDF></metadata><defs
     id="defs6" /><g
     transform="matrix(1.3333333,0,0,-1.3333333,0,255.89333)"
     id="g10"><g
       transform="scale(0.1)"
       id="g12"><path
         id="path14"
         style="fill:#e83639;fill-opacity:1;fill-rule:nonzero;stroke:none"
         d="m 1292.76,301.582 c -97.85,-50.141 -210.38,-75.793 -338.295,-75.793 -200.133,0 -369.477,69.27 -508.027,207.813 -136.86,140.25 -205.266,315.609 -205.266,525.984 0,210.394 68.406,385.714 205.266,525.984 138.55,138.56 307.894,207.83 508.027,207.83 80.095,0 156.225,-11.88 228.515,-35.33 0,0 46.89,-3.33 166.99,-63.69 86.03,-43.24 168.24,-110.41 168.24,-110.41 l 85.17,80.85 107.69,75.33 c -4.93,-2.6 -27.16,16.56 -69.87,47.69 -29.32,21.36 -97.31,63.02 -148.91,90.97 -89.37,48.4 -154.16,67.99 -155.53,68.54 -119.75,47.86 -247.2,71.84 -382.295,71.84 -266.84,0 -492.637,-92.37 -677.367,-277.1 C 92.3594,1457.35 0,1229.84 0,959.586 0,689.309 92.3594,461.82 277.098,277.102 461.828,92.3594 687.625,0.0117188 954.465,0.0117188 1155.92,0.0117188 1329.1,47.5898 1474.32,142.27 c -55.74,36.339 -107.49,79.402 -154.94,129.699 -9.47,9.461 -17.75,19.75 -26.62,29.613" /><path
         id="path16"
         style="fill:#e83639;fill-opacity:1;fill-rule:nonzero;stroke:none"
         d="M 969.047,1103.79 H 748.398 v 220.64 h 220.649 v -220.64" /><path
         id="path18"
         style="fill:#e83639;fill-opacity:1;fill-rule:nonzero;stroke:none"
         d="M 969.047,506.172 H 748.398 V 726.809 H 969.047 V 506.172" /><path
         id="path20"
         style="fill:#e83639;fill-opacity:1;fill-rule:nonzero;stroke:none"
         d="M 688.355,820.832 H 467.711 V 1041.47 H 688.355 V 820.832" /><path
         id="path22"
         style="fill:#575b5c;fill-opacity:1;fill-rule:nonzero;stroke:none"
         d="m 4954.85,966.785 c 0,-66.824 19.45,-120.965 58.36,-162.406 38.91,-41.449 87.11,-62.168 144.65,-62.168 57.51,0 105.73,20.719 144.65,62.168 38.9,41.441 58.36,95.582 58.36,162.406 0,65.985 -19.46,119.685 -58.36,161.145 -39.77,42.28 -87.99,63.44 -144.65,63.44 -56.68,0 -104.89,-21.16 -144.65,-63.44 -38.91,-41.46 -58.36,-95.16 -58.36,-161.145 z m -116.73,0 c 0,95.585 30.02,174.665 90.08,237.275 60.91,62.59 137.46,93.89 229.66,93.89 92.19,0 168.31,-31.3 228.39,-93.89 60.9,-62.61 91.35,-141.69 91.35,-237.275 0,-96.426 -30.45,-175.523 -91.35,-237.265 -60.08,-62.61 -136.2,-93.891 -228.39,-93.891 -92.2,0 -168.75,31.281 -229.66,93.891 -60.06,62.589 -90.08,141.671 -90.08,237.265" /><path
         id="path24"
         style="fill:#575b5c;fill-opacity:1;fill-rule:nonzero;stroke:none"
         d="m 5627.91,966.785 c 0,-66.824 19.46,-120.965 58.36,-162.406 38.91,-41.449 87.12,-62.168 144.66,-62.168 57.51,0 105.72,20.719 144.64,62.168 38.9,41.441 58.37,95.582 58.37,162.406 0,65.985 -19.47,119.685 -58.37,161.145 -39.77,42.28 -87.99,63.44 -144.64,63.44 -56.68,0 -104.9,-21.16 -144.66,-63.44 -38.9,-41.46 -58.36,-95.16 -58.36,-161.145 z m -116.73,0 c 0,95.585 30.02,174.665 90.09,237.275 60.91,62.59 137.45,93.89 229.66,93.89 92.18,0 168.31,-31.3 228.39,-93.89 60.9,-62.61 91.35,-141.69 91.35,-237.275 0,-96.426 -30.45,-175.523 -91.35,-237.265 -60.08,-62.61 -136.21,-93.891 -228.39,-93.891 -92.21,0 -168.75,31.281 -229.66,93.891 -60.07,62.589 -90.09,141.671 -90.09,237.265" /><path
         id="path26"
         style="fill:#575b5c;fill-opacity:1;fill-rule:nonzero;stroke:none"
         d="m 6530.62,742.211 c 57.51,0 104.46,20.719 140.84,62.168 38.06,41.441 57.1,95.582 57.1,162.406 0,65.135 -19.04,118.835 -57.1,161.145 -37.23,42.28 -84.18,63.44 -140.84,63.44 -55.83,0 -102.78,-21.16 -140.84,-63.44 -38.07,-42.31 -57.1,-96.01 -57.1,-161.145 0,-65.976 19.03,-119.695 57.1,-161.137 38.06,-42.308 85.01,-63.437 140.84,-63.437 z m -19.04,-106.582 c -81.2,0 -150.99,32.133 -209.35,96.43 -57.54,65.121 -86.28,143.382 -86.28,234.726 0,91.355 28.74,169.595 86.28,234.735 58.36,64.27 128.15,96.43 209.35,96.43 45.69,0 87.33,-9.73 124.98,-29.18 37.63,-19.47 66.62,-45.26 86.92,-77.4 h 5.08 l -5.08,86.28 v 286.76 h 116.74 V 655.922 h -111.66 v 86.289 h -5.08 c -20.3,-32.152 -49.29,-57.961 -86.92,-77.41 -37.65,-19.442 -79.29,-29.172 -124.98,-29.172" /><path
         id="path28"
         style="fill:#575b5c;fill-opacity:1;fill-rule:nonzero;stroke:none"
         d="m 7414.31,828.48 c 0,-54.14 -23.7,-99.808 -71.06,-137.031 -47.39,-37.219 -107.02,-55.82 -178.9,-55.82 -62.61,0 -117.59,16.293 -164.94,48.851 -47.4,32.551 -81.21,75.489 -101.52,128.782 l 104.05,44.41 c 15.22,-37.231 37.43,-66.203 66.61,-86.91 29.19,-20.742 61.1,-31.09 95.8,-31.09 37.21,0 68.3,8.027 93.26,24.109 24.94,16.051 37.42,35.078 37.42,57.098 0,39.742 -30.45,68.93 -91.35,87.543 l -106.59,26.652 c -120.97,30.449 -181.43,88.806 -181.43,175.086 0,56.66 23.03,102.14 69.15,136.4 46.09,34.26 105.09,51.39 177,51.39 54.97,0 104.68,-13.13 149.09,-39.34 44.4,-26.22 75.49,-61.33 93.25,-105.3 l -104.04,-43.15 c -11.86,26.22 -31.08,46.73 -57.74,61.54 -26.64,14.8 -56.45,22.21 -89.44,22.21 -30.46,0 -57.73,-7.61 -81.84,-22.84 -24.11,-15.22 -36.16,-33.84 -36.16,-55.83 0,-35.53 33.4,-60.91 100.23,-76.13 l 93.89,-24.11 c 123.5,-30.441 185.26,-92.621 185.26,-186.52" /><path
         id="path30"
         style="fill:#e83639;fill-opacity:1;fill-rule:nonzero;stroke:none"
         d="m 3394.79,963.602 c 0,-66.832 19.44,-120.973 58.36,-162.403 38.9,-41.461 87.11,-62.179 144.65,-62.179 57.51,0 105.72,20.718 144.64,62.179 38.9,41.43 58.37,95.571 58.37,162.403 0,65.988 -19.47,119.688 -58.37,161.138 -39.77,42.29 -87.99,63.44 -144.64,63.44 -56.68,0 -104.9,-21.15 -144.65,-63.44 -38.92,-41.45 -58.36,-95.15 -58.36,-161.138 z m -116.74,0 c 0,95.578 30.02,174.668 90.09,237.278 60.9,62.58 137.45,93.89 229.66,93.89 92.18,0 168.31,-31.31 228.39,-93.89 60.9,-62.61 91.35,-141.7 91.35,-237.278 0,-96.43 -30.45,-175.532 -91.35,-237.27 -60.08,-62.602 -136.21,-93.883 -228.39,-93.883 -92.21,0 -168.76,31.281 -229.66,93.883 -60.07,62.59 -90.09,141.668 -90.09,237.27" /><path
         id="path32"
         style="fill:#e83639;fill-opacity:1;fill-rule:nonzero;stroke:none"
         d="M 3817.46,1301.13 V 1135.8 h -4.74 c 35.68,-43.4 69.23,-106.54 69.23,-190.577 0,-146.504 -49.18,-208.871 -64.49,-230.223 v -55.879 c 0,-62.601 -16.64,-111.742 -49.92,-147.402 -33.29,-35.66 -79.65,-53.489 -139.08,-53.489 -38.84,0 -72.92,10.301 -102.23,30.911 -29.33,20.609 -49.93,47.949 -61.81,82.007 L 3361,528.359 c 8.71,-25.347 21.4,-48.32 38.04,-68.949 16.64,-20.59 36.64,-38.43 60.03,-53.488 23.36,-15.031 49.33,-26.742 77.86,-35.063 28.53,-8.32 59.03,-12.48 91.53,-12.48 88.74,0 160.07,26.941 213.97,80.84 53.08,53.09 79.64,126.402 79.64,219.902 v 642.009 h -104.61" /><path
         id="path34"
         style="fill:#575b5c;fill-opacity:1;fill-rule:nonzero;stroke:none"
         d="m 4243.91,963.602 c 0,-66.832 19.45,-120.973 58.36,-162.403 38.91,-41.461 87.12,-62.179 144.66,-62.179 57.51,0 105.72,20.718 144.64,62.179 38.9,41.43 58.36,95.571 58.36,162.403 0,65.988 -19.46,119.688 -58.36,161.138 -39.77,42.29 -87.99,63.44 -144.64,63.44 -56.68,0 -104.9,-21.15 -144.66,-63.44 -38.91,-41.45 -58.36,-95.15 -58.36,-161.138 z m -116.73,0 c 0,95.578 30.01,174.668 90.08,237.278 60.91,62.58 137.46,93.89 229.67,93.89 92.18,0 168.31,-31.31 228.38,-93.89 60.9,-62.61 91.35,-141.7 91.35,-237.278 0,-96.43 -30.45,-175.532 -91.35,-237.27 -60.07,-62.602 -136.2,-93.883 -228.38,-93.883 -92.21,0 -168.76,31.281 -229.67,93.883 -60.07,62.59 -90.08,141.668 -90.08,237.27" /><path
         id="path36"
         style="fill:#575b5c;fill-opacity:1;fill-rule:nonzero;stroke:none"
         d="M 4666.59,1301.13 V 1135.8 h -4.75 c 35.69,-43.4 69.24,-106.54 69.24,-190.577 0,-146.504 -49.18,-208.871 -64.49,-230.223 v -55.879 c 0,-62.601 -16.64,-111.742 -49.93,-147.402 -33.28,-35.66 -79.64,-53.489 -139.08,-53.489 -38.83,0 -72.92,10.301 -102.23,30.911 -29.32,20.609 -49.92,47.949 -61.81,82.007 l -103.42,-42.789 c 8.71,-25.347 21.4,-48.32 38.04,-68.949 16.65,-20.59 36.65,-38.43 60.03,-53.488 23.37,-15.031 49.33,-26.742 77.86,-35.063 28.53,-8.32 59.03,-12.48 91.53,-12.48 88.75,0 160.07,26.941 213.97,80.84 53.09,53.09 79.64,126.402 79.64,219.902 v 642.009 h -104.6" /><path
         id="path38"
         style="fill:#575b5c;fill-opacity:1;fill-rule:nonzero;stroke:none"
         d="m 7488.67,597.762 h 14.55 c 2.75,0 5.07,0.859 6.97,2.558 1.9,1.668 2.85,3.789 2.85,6.321 0,5.89 -3.91,8.847 -11.71,8.847 h -12.66 z m 24.99,-39.84 -17.4,26.566 h -7.59 v -26.566 h -14.56 v 71.5 h 30.38 c 6.33,0 11.76,-2.223 16.3,-6.641 4.52,-4.449 6.8,-9.82 6.8,-16.14 0,-4.86 -1.48,-9.219 -4.42,-13.129 -2.96,-3.903 -6.76,-6.492 -11.4,-7.762 l -0.63,-0.629 18.99,-26.57 v -0.629 z m -72.77,35.726 c 0,-15.597 5.69,-29.097 17.09,-40.5 11.39,-11.378 24.89,-17.07 40.51,-17.07 15.81,0 29.31,5.582 40.49,16.754 11.39,11.406 17.09,25.02 17.09,40.816 0,16.032 -5.59,29.653 -16.78,40.832 -11.17,11.168 -24.78,16.782 -40.8,16.782 -15.83,0 -29.44,-5.703 -40.82,-17.102 -11.19,-11.172 -16.78,-24.68 -16.78,-40.512 z m 130.36,0 c 0,-20.019 -7.17,-37.226 -21.51,-51.558 -14.14,-14.129 -31.21,-21.199 -51.25,-21.199 -20.26,0 -37.45,7.07 -51.58,21.199 -14.13,14.129 -21.21,31.308 -21.21,51.558 0,20.063 7.08,37.153 21.21,51.282 14.33,14.332 31.52,21.519 51.58,21.519 19.82,0 36.89,-7.187 51.25,-21.519 14.34,-14.36 21.51,-31.461 21.51,-51.282" /><path
         id="path40"
         style="fill:#ecad1e;fill-opacity:1;fill-rule:nonzero;stroke:none"
         d="m 2060.45,1078.82 c 33.5,0.43 62.12,12.5 85.9,36.27 24.59,24.6 36.88,53.44 36.9,86.54 -0.02,33.09 -12.31,61.94 -36.9,86.54 -23.78,23.76 -52.4,35.83 -85.9,36.26 -33.53,0.42 -62.58,-11.67 -87.18,-36.26 -23.77,-23.78 -35.64,-52.61 -35.62,-86.54 -0.02,-33.94 11.85,-62.77 35.62,-86.54 24.6,-24.59 53.65,-36.68 87.18,-36.27" /><path
         id="path42"
         style="fill:#3cae53;fill-opacity:1;fill-rule:nonzero;stroke:none"
         d="m 2452.15,982.359 c -23.77,23.771 -52.39,35.841 -85.89,36.271 -33.54,0.42 -62.59,-11.68 -87.18,-36.271 -23.77,-23.769 -35.64,-52.605 -35.63,-86.539 -0.01,-33.941 11.86,-62.769 35.63,-86.539 24.59,-24.601 53.64,-36.691 87.18,-36.261 33.5,0.421 62.12,12.492 85.89,36.261 24.6,24.598 36.89,53.449 36.91,86.539 -0.02,33.094 -12.31,61.942 -36.91,86.539" /><path
         id="path44"
         style="fill:#5377c4;fill-opacity:1;fill-rule:nonzero;stroke:none"
         d="m 2064.36,716.73 c -33.53,0.418 -62.58,-11.66 -87.18,-36.261 -23.77,-23.77 -35.64,-52.598 -35.62,-86.539 -0.02,-33.93 11.85,-62.77 35.62,-86.539 24.6,-24.602 53.65,-36.68 87.18,-36.262 33.5,0.422 62.13,12.492 85.9,36.262 24.6,24.597 36.89,53.449 36.9,86.539 -0.01,33.09 -12.3,61.941 -36.9,86.539 -23.77,23.761 -52.4,35.84 -85.9,36.261" /><path
         id="path46"
         style="fill:#e83639;fill-opacity:1;fill-rule:nonzero;stroke:none"
         d="m 1821.42,969.352 c -20.2,20.207 -44.52,30.464 -72.99,30.818 -5.57,0.08 -10.88,-0.607 -16.16,-1.346 -21.72,-3.062 -41.1,-12.656 -57.92,-29.472 -20.19,-20.196 -30.28,-44.688 -30.27,-73.52 -0.01,-28.844 10.08,-53.344 30.27,-73.543 20.91,-20.898 45.59,-31.168 74.08,-30.809 0.01,0 0.03,0 0.04,0 28.45,0.372 52.76,10.622 72.95,30.809 20.91,20.902 31.35,45.41 31.36,73.543 -0.01,28.109 -10.45,52.621 -31.36,73.52" /><path
         id="path48"
         style="fill:#e83639;fill-opacity:1;fill-rule:nonzero;stroke:none"
         d="m 1759.81,752.441 c -0.02,0 -0.04,0 -0.06,0 -41.29,-0.519 -77.05,14.36 -107.34,44.649 -29.26,29.262 -43.88,64.762 -43.86,106.551 -0.02,41.785 14.6,77.285 43.86,106.549 5.05,5.05 10.36,9.38 15.74,13.54 h -288.32 c -13.88,-77.992 -15.62,-151.429 -6.1,-220.64 h 247.83 c -15.26,-145.442 -64.73,-265.18 -147.24,-360.141 19.39,-22.32 40.04,-43.687 63.14,-63.211 36.57,-30.906 76.27,-56.558 118.42,-78.156 114.96,127.809 180.63,289.418 196.9,484.879 -26.64,-21.801 -57.44,-33.563 -92.97,-34.02" /><path
         id="path50"
         style="fill:#575b5c;fill-opacity:1;fill-rule:nonzero;stroke:none"
         d="m 1411.17,379.73 c 17.1,14.461 32.57,30.141 47.46,46.25 -14.89,-16.109 -30.36,-31.789 -47.46,-46.25 z m 1260.37,1262.36 c -184.74,184.73 -410.53,277.1 -677.37,277.1 -124.71,0 -242.81,-20.69 -354.45,-61.49 l -35.47,-20.83 243.91,-157.36 c 47.14,9.22 95.8,13.9 146.01,13.9 200.13,0 369.47,-69.28 508.02,-207.84 136.87,-140.27 205.27,-315.59 205.27,-525.972 0,-210.387 -68.4,-385.746 -205.27,-525.996 -138.55,-138.543 -307.89,-207.813 -508.02,-207.813 -127.91,0 -240.44,25.652 -338.29,75.793 -42.15,21.59 -81.85,47.25 -118.42,78.148 -23.1,19.532 -43.75,40.899 -63.14,63.219 v 0 c -82.52,94.961 -131.99,214.699 -147.24,360.141 0,0 0.05,0.058 0.06,0.07 -11.38,69.07 -10.92,142.598 1.43,220.57 H 905.852 V 803.09 h 188.298 v 0 c 13.8,-203.078 80.35,-370.031 198.61,-501.508 8.87,-9.863 17.15,-20.152 26.62,-29.613 47.45,-50.297 99.2,-93.36 154.94,-129.699 145.21,-94.6802 318.4,-142.2582812 519.85,-142.2582812 266.84,0 492.63,92.3476812 677.37,277.0902812 184.73,184.718 277.09,412.207 277.09,682.496 0,270.242 -92.36,497.752 -277.09,682.492" /></g></g></svg>